<svg xmlns="http://www.w3.org/2000/svg" width="210.127" height="48.79" viewBox="0 0 210.127 48.79">
  <g id="Group_68" data-name="Group 68" transform="translate(-8215.001 -459)">
    <path id="Path_32" data-name="Path 32" d="M307.236,601.385l-3.275,1.31a4.782,4.782,0,0,0-2.14,1.594,4.246,4.246,0,0,0-.742,2.555,7.312,7.312,0,0,0,.131,1.354,3.457,3.457,0,0,0,.48,1.245,2.66,2.66,0,0,0,.983.895,3.361,3.361,0,0,0,1.638.35,4.064,4.064,0,0,0,2.336-.611A4.011,4.011,0,0,0,308,608.547a6.476,6.476,0,0,0,.611-1.987,13.875,13.875,0,0,0,.153-1.943v-4.367h-.087Q308.589,600.817,307.236,601.385Z" transform="translate(8021.3 -120.724)" fill="none"/>
    <path id="Path_38" data-name="Path 38" d="M233.949,665.252c0-.241-1.644-.435-3.673-.435s-3.675.194-3.675.435,1.644.437,3.675.437S233.949,665.5,233.949,665.252Z" transform="translate(8066.771 -160.144)" fill="none"/>
    <path id="Path_41" data-name="Path 41" d="M284.833,663.092H286.7l-.913-2.326Z" transform="translate(8031.219 -157.671)" fill="none"/>
    <path id="Path_42" data-name="Path 42" d="M277.447,660.111a.775.775,0,0,0-.387-.227,3.626,3.626,0,0,0-.829-.065H275.9v2.1h.332a2.17,2.17,0,0,0,1.189-.224.916.916,0,0,0,.3-.787,1.316,1.316,0,0,0-.069-.437A1.067,1.067,0,0,0,277.447,660.111Z" transform="translate(8036.674 -157.093)" fill="none"/>
    <path id="Path_43" data-name="Path 43" d="M296.4,659.819h-.489v1.975h.489a1.545,1.545,0,0,0,.948-.217.9.9,0,0,0,.268-.739.976.976,0,0,0-.278-.785A1.468,1.468,0,0,0,296.4,659.819Z" transform="translate(8024.453 -157.093)" fill="none"/>
    <path id="Path_48" data-name="Path 48" d="M460.789,595.6a5.309,5.309,0,0,0,1.725,2.031,6.014,6.014,0,0,0,5.787.088,4.219,4.219,0,0,0,1.572-2.009,10.575,10.575,0,0,0,.655-3.166q.131-1.855.131-4.127a26.741,26.741,0,0,0-.218-3.6,9.2,9.2,0,0,0-.764-2.73,4.089,4.089,0,0,0-1.529-1.747,4.683,4.683,0,0,0-2.511-.611,5.559,5.559,0,0,0-2.664.568,5.162,5.162,0,0,0-1.7,1.441,5.411,5.411,0,0,0-.764,1.31,8.435,8.435,0,0,0-.458,1.66,17.592,17.592,0,0,0-.24,2.205q-.065,1.245-.065,2.948a20.92,20.92,0,0,0,.219,2.97A9.172,9.172,0,0,0,460.789,595.6Z" transform="translate(7924.431 -108.195)" fill="none"/>
    <path id="Path_49" data-name="Path 49" d="M68.6,579.3a28.243,28.243,0,0,0,2.948-.153,11.179,11.179,0,0,0,2.8-.655,8.923,8.923,0,0,0,2.489-1.441,9.272,9.272,0,0,0,2.074-2.467,16.408,16.408,0,0,0,1.943-4.826,24.983,24.983,0,0,0,.546-5.394,27.721,27.721,0,0,0-.655-6.267,12.552,12.552,0,0,0-2.162-4.8,9.884,9.884,0,0,0-4-3.079,15.349,15.349,0,0,0-6.157-1.092q-1.092,0-1.987.043l-1.725.088V579.12q.743.089,1.725.131T68.6,579.3Z" transform="translate(8165.612 -89.506)" fill="none"/>
    <path id="Path_50" data-name="Path 50" d="M154.6,585.843v-1.092a8.824,8.824,0,0,0-.284-2.446,4,4,0,0,0-.786-1.528,2.786,2.786,0,0,0-1.223-.808,4.9,4.9,0,0,0-1.55-.24,4.608,4.608,0,0,0-2.445.59,4.341,4.341,0,0,0-1.529,1.594,8.2,8.2,0,0,0-.851,2.315,18.044,18.044,0,0,0-.371,2.751h8.952A8.088,8.088,0,0,0,154.6,585.843Z" transform="translate(8116.252 -108.195)" fill="none"/>
    <path id="Path_51" data-name="Path 51" d="M348.477,664.814c-2.029,0-3.673.2-3.673.437s1.644.437,3.673.437,3.675-.2,3.675-.437S350.506,664.814,348.477,664.814Z" transform="translate(7994.604 -160.143)" fill="none"/>
    <path id="Path_52" data-name="Path 52" d="M353.882,663.816c-4.1,0-6.448-.151-9.861-.164-7.357-.036-6.892.89-6.892.89s-.465.923,6.892.891c3.414-.015,5.76-.164,9.861-.164,19.7,0,71.952-.09,71.952-.727S373.583,663.816,353.882,663.816Zm-10.094,1.162c-2.029,0-3.673-.2-3.673-.437s1.644-.437,3.673-.437,3.675.2,3.675.437S345.817,664.978,343.787,664.978Z" transform="translate(7999.293 -159.432)" fill="#fff"/>
    <path id="Path_53" data-name="Path 53" d="M114.075,664.54s.465-.923-6.89-.889c-3.414.015-5.76.164-9.861.164-19.7,0-71.952.088-71.952.725s52.251.727,71.952.727c4.1,0,6.447.15,9.861.164C114.54,665.465,114.075,664.54,114.075,664.54Zm-10.332,0c0-.241,1.644-.435,3.675-.435s3.673.194,3.673.435-1.644.437-3.673.437S103.743,664.783,103.743,664.54Z" transform="translate(8189.629 -159.432)" fill="#fff"/>
    <path id="Path_54" data-name="Path 54" d="M49.851,578.795q.72.022,1.463.065t1.485.066q.742.021,1.4.022,1.528,0,2.708-.044t2.162-.175a14.075,14.075,0,0,0,1.922-.393,13.547,13.547,0,0,0,1.987-.743,15.091,15.091,0,0,0,3.515-2.074,13.966,13.966,0,0,0,2.861-3.057,14.568,14.568,0,0,0,1.922-4.061,17.765,17.765,0,0,0,.7-5.175,18.875,18.875,0,0,0-.589-4.76,14.237,14.237,0,0,0-1.834-4.193,13.246,13.246,0,0,0-3.188-3.384,15.772,15.772,0,0,0-4.607-2.336q-.917-.306-1.725-.5a14.828,14.828,0,0,0-1.7-.305q-.895-.109-1.921-.153t-2.336-.044q-.612,0-1.223.022t-1.223.022q-.612.044-1.223.065t-1.223.022H41.051v.611H45.9v29.871H41.051v.612h7.424Q49.13,578.773,49.851,578.795Zm.414-30.5,1.725-.088q.894-.043,1.987-.043a15.348,15.348,0,0,1,6.157,1.092,9.884,9.884,0,0,1,4,3.079,12.553,12.553,0,0,1,2.162,4.8,27.721,27.721,0,0,1,.655,6.267,24.981,24.981,0,0,1-.546,5.394,16.406,16.406,0,0,1-1.943,4.826,9.272,9.272,0,0,1-2.074,2.467,8.921,8.921,0,0,1-2.489,1.441,11.181,11.181,0,0,1-2.8.655,28.227,28.227,0,0,1-2.948.153q-1.179,0-2.162-.044t-1.725-.131Z" transform="translate(8180.056 -88.548)" fill="#fff"/>
    <path id="Path_55" data-name="Path 55" d="M136.957,595.366a9.21,9.21,0,0,0,3.21,2.009,11.384,11.384,0,0,0,4.04.7,8.09,8.09,0,0,0,3.559-.677,7.152,7.152,0,0,0,2.184-1.572,6.335,6.335,0,0,0,1.179-1.791,12.637,12.637,0,0,0,.5-1.376l-.655-.131q-.175.524-.524,1.353a5.945,5.945,0,0,1-1.07,1.638,5.812,5.812,0,0,1-1.965,1.376,7.655,7.655,0,0,1-3.166.568,5.172,5.172,0,0,1-3.079-.83,5.283,5.283,0,0,1-1.747-2.1,9.044,9.044,0,0,1-.764-2.839,27.218,27.218,0,0,1-.175-3.013q0-.7.022-1.157t.022-.9h13.451a8.939,8.939,0,0,0-.808-4.018,7.813,7.813,0,0,0-2.009-2.6,7.724,7.724,0,0,0-2.6-1.419,8.658,8.658,0,0,0-6.463.415,10.5,10.5,0,0,0-5.218,5.459,9.513,9.513,0,0,0-.765,3.734,10.556,10.556,0,0,0,.742,4.04A9.065,9.065,0,0,0,136.957,595.366Zm1.987-12.1a8.2,8.2,0,0,1,.851-2.315,4.34,4.34,0,0,1,1.529-1.594,4.608,4.608,0,0,1,2.445-.59,4.9,4.9,0,0,1,1.55.24,2.787,2.787,0,0,1,1.223.808,4,4,0,0,1,.786,1.528,8.825,8.825,0,0,1,.284,2.446v1.092a8.092,8.092,0,0,1-.088,1.135h-8.952A18.045,18.045,0,0,1,138.944,583.269Z" transform="translate(8123.235 -107.237)" fill="#fff"/>
    <path id="Path_56" data-name="Path 56" d="M192.247,597.047a1.026,1.026,0,0,1,.7-.2,3.219,3.219,0,0,1,1.048.2q.567.2,1.245.415t1.485.415a7.483,7.483,0,0,0,1.769.2,7.772,7.772,0,0,0,2.948-.524,6.906,6.906,0,0,0,2.183-1.375,5.615,5.615,0,0,0,1.354-1.987,6.132,6.132,0,0,0,.459-2.315,4.212,4.212,0,0,0-1.311-3.232,9.2,9.2,0,0,0-3.362-1.921l-3.188-1.048a10.276,10.276,0,0,1-2.9-1.332,2.46,2.46,0,0,1-.983-2.118,3.068,3.068,0,0,1,1.157-2.511,5.033,5.033,0,0,1,3.254-.939,4.3,4.3,0,0,1,1.9.393,3.82,3.82,0,0,1,1.354,1.092,7.41,7.41,0,0,1,.939,1.594,18.913,18.913,0,0,1,.7,1.856h.48v-4.979h-.48a.762.762,0,0,1-.7.35,2.045,2.045,0,0,1-.83-.153q-.349-.152-.786-.306t-1.026-.306a6.4,6.4,0,0,0-1.55-.153,7.059,7.059,0,0,0-2.512.437,5.788,5.788,0,0,0-3.3,3.057,5.376,5.376,0,0,0-.481,2.271,5.749,5.749,0,0,0,.415,2.358,4.472,4.472,0,0,0,1.07,1.507,5.131,5.131,0,0,0,1.419.917q.764.328,1.419.546l3.406,1.179a6.679,6.679,0,0,1,1.987,1.07,2.823,2.823,0,0,1,.852,2.336,3.3,3.3,0,0,1-1.092,2.773,3.943,3.943,0,0,1-2.489.852,6.488,6.488,0,0,1-2.838-.568,6.338,6.338,0,0,1-1.987-1.463,7.5,7.5,0,0,1-1.288-1.965,16.179,16.179,0,0,1-.786-2.118h-.48v6.114h.48A1.826,1.826,0,0,1,192.247,597.047Z" transform="translate(8088.252 -107.237)" fill="#fff"/>
    <path id="Path_57" data-name="Path 57" d="M253.782,595.824a6.326,6.326,0,0,0,1.179-1.791,12.579,12.579,0,0,0,.5-1.376l-.655-.131q-.175.524-.524,1.353a5.937,5.937,0,0,1-1.07,1.638,5.808,5.808,0,0,1-1.965,1.376,7.653,7.653,0,0,1-3.166.568,5.268,5.268,0,0,1-2.9-.721,4.97,4.97,0,0,1-1.747-1.965,9.3,9.3,0,0,1-.873-2.9,24.671,24.671,0,0,1-.24-3.537,19.932,19.932,0,0,1,.546-5.241,7.387,7.387,0,0,1,1.4-2.882,3.622,3.622,0,0,1,1.878-1.2,8.751,8.751,0,0,1,1.987-.24,4.773,4.773,0,0,1,2.314.546,1.7,1.7,0,0,1,1,1.55,4.584,4.584,0,0,1-.306,1.442,4.644,4.644,0,0,0-.306,1.484,1.141,1.141,0,0,0,.677,1.113,3.21,3.21,0,0,0,1.42.328,2.278,2.278,0,0,0,1.681-.589,2.042,2.042,0,0,0,.59-1.507,3.816,3.816,0,0,0-.677-2.292,5.383,5.383,0,0,0-1.7-1.529,8.193,8.193,0,0,0-2.271-.873,10.878,10.878,0,0,0-2.423-.284,10.28,10.28,0,0,0-3.953.764,9.973,9.973,0,0,0-3.232,2.118,10.183,10.183,0,0,0-2.183,3.188,9.743,9.743,0,0,0-.808,3.974,10.278,10.278,0,0,0,.939,4.63,8.7,8.7,0,0,0,2.423,3.035,9.715,9.715,0,0,0,3.276,1.681,12.248,12.248,0,0,0,3.45.524,8.09,8.09,0,0,0,3.559-.677A7.15,7.15,0,0,0,253.782,595.824Z" transform="translate(8059.842 -107.237)" fill="#fff"/>
    <path id="Path_58" data-name="Path 58" d="M309.166,597.746a5.979,5.979,0,0,0,1.354-.764l-.35-.48a3.672,3.672,0,0,1-1,.524,3.185,3.185,0,0,1-1,.174,1.447,1.447,0,0,1-1.136-.437,2.644,2.644,0,0,1-.393-1.7V584.186a7.211,7.211,0,0,0-.349-2.249,4.931,4.931,0,0,0-1.179-1.922,5.832,5.832,0,0,0-2.183-1.354,9.765,9.765,0,0,0-3.363-.5,10.1,10.1,0,0,0-2.948.393,6.412,6.412,0,0,0-2.14,1.07,4.621,4.621,0,0,0-1.288,1.55,4.052,4.052,0,0,0-.437,1.834,2.389,2.389,0,0,0,.35,1.354q.349.524,1.79.524a1.767,1.767,0,0,0,1.266-.415,1.358,1.358,0,0,0,.437-1.026,6.616,6.616,0,0,0-.131-1.07,8.166,8.166,0,0,1-.131-1.463,1.718,1.718,0,0,1,.939-1.638,5.021,5.021,0,0,1,2.38-.5,4.18,4.18,0,0,1,1.747.306,2.235,2.235,0,0,1,1,.9,3.981,3.981,0,0,1,.48,1.419,12.087,12.087,0,0,1,.131,1.878,8.706,8.706,0,0,1-.2,2.074,2.61,2.61,0,0,1-.721,1.266,4.21,4.21,0,0,1-1.463.852q-.939.35-2.38.83-1.223.393-2.424.742a10.6,10.6,0,0,0-2.183.9,4.532,4.532,0,0,0-1.594,1.463,4.346,4.346,0,0,0-.611,2.446,5.726,5.726,0,0,0,.2,1.419,2.974,2.974,0,0,0,.808,1.376,4.753,4.753,0,0,0,1.7,1.026,8.432,8.432,0,0,0,2.926.415,8.1,8.1,0,0,0,2.664-.371,5.211,5.211,0,0,0,1.682-.917,3.9,3.9,0,0,0,.939-1.135q.3-.589.48-.983h.088a4.744,4.744,0,0,0,1.288,2.511,4.3,4.3,0,0,0,3.035.9A5,5,0,0,0,309.166,597.746Zm-6.289-6.616a13.878,13.878,0,0,1-.153,1.943,6.477,6.477,0,0,1-.611,1.987,4.011,4.011,0,0,1-1.354,1.528,4.064,4.064,0,0,1-2.336.611,3.361,3.361,0,0,1-1.638-.35,2.659,2.659,0,0,1-.983-.895,3.457,3.457,0,0,1-.48-1.245,7.311,7.311,0,0,1-.131-1.354,4.246,4.246,0,0,1,.742-2.555,4.783,4.783,0,0,1,2.14-1.594l3.275-1.31q1.353-.567,1.441-1.136h.087Z" transform="translate(8027.187 -107.237)" fill="#fff"/>
    <path id="Path_59" data-name="Path 59" d="M353.5,596.988h-3.363v-9.695a10.309,10.309,0,0,1,.633-3.843,7.944,7.944,0,0,1,1.572-2.555,6.065,6.065,0,0,1,2.031-1.441,5.227,5.227,0,0,1,2.009-.458,2.621,2.621,0,0,1,2.1.917,4.29,4.29,0,0,1,.786,2.838v14.237H355.9v.612h10.481v-.612h-3.363V585.852a7.9,7.9,0,0,1,.546-3.057,6.175,6.175,0,0,1,1.42-2.14,5.856,5.856,0,0,1,1.965-1.245,6.113,6.113,0,0,1,2.183-.415,2.937,2.937,0,0,1,2.205.83,3.179,3.179,0,0,1,.809,2.315v14.848H368.78v.612h10.481v-.612H375.9v-12.1q0-6.507-6.376-6.507a7.806,7.806,0,0,0-2.424.349,6.367,6.367,0,0,0-1.856.939,5.99,5.99,0,0,0-1.31,1.332,7.112,7.112,0,0,0-.83,1.529h-.088a4.694,4.694,0,0,0-2.206-3.188,7.653,7.653,0,0,0-3.865-.961,7.03,7.03,0,0,0-4.171,1.223,7.6,7.6,0,0,0-2.642,3.843h-.087v-4.586h-7.031v.612h3.363v17.512h-3.363v.612H353.5Z" transform="translate(7995.697 -107.374)" fill="#fff"/>
    <path id="Path_60" data-name="Path 60" d="M451.945,609.078h-3.363V593.837h.088a8.18,8.18,0,0,0,.48,1.157,5.424,5.424,0,0,0,1,1.4,5.932,5.932,0,0,0,1.681,1.179,5.685,5.685,0,0,0,2.511.5,8.317,8.317,0,0,0,3.647-.83,10.158,10.158,0,0,0,3.035-2.227,10.75,10.75,0,0,0,2.074-3.21,9.9,9.9,0,0,0,.022-7.577,10.038,10.038,0,0,0-4.935-5.263,7.985,7.985,0,0,0-3.537-.808,6.081,6.081,0,0,0-3.908,1.2,6.677,6.677,0,0,0-2.162,3.035h-.087v-3.668h-7.031v.612h3.363v29.74h-3.363v.612h10.481Zm-3.3-23.124a17.594,17.594,0,0,1,.24-2.205,8.436,8.436,0,0,1,.458-1.66,5.412,5.412,0,0,1,.764-1.31,5.162,5.162,0,0,1,1.7-1.441,5.56,5.56,0,0,1,2.664-.568,4.684,4.684,0,0,1,2.511.611,4.089,4.089,0,0,1,1.529,1.747,9.194,9.194,0,0,1,.764,2.73,26.74,26.74,0,0,1,.218,3.6q0,2.271-.131,4.127a10.573,10.573,0,0,1-.655,3.166,4.22,4.22,0,0,1-1.572,2.009,6.014,6.014,0,0,1-5.787-.088,5.307,5.307,0,0,1-1.725-2.031,9.172,9.172,0,0,1-.83-2.773,20.922,20.922,0,0,1-.219-2.97Q448.582,587.2,448.648,585.955Z" transform="translate(7935.59 -107.237)" fill="#fff"/>
    <path id="Path_61" data-name="Path 61" d="M511.926,597.047a1.024,1.024,0,0,1,.7-.2,3.221,3.221,0,0,1,1.048.2q.567.2,1.244.415t1.485.415a7.484,7.484,0,0,0,1.769.2,7.767,7.767,0,0,0,2.948-.524,6.91,6.91,0,0,0,2.184-1.375,5.621,5.621,0,0,0,1.353-1.987,6.133,6.133,0,0,0,.459-2.315,4.214,4.214,0,0,0-1.31-3.232,9.2,9.2,0,0,0-3.363-1.921l-3.188-1.048a10.288,10.288,0,0,1-2.9-1.332,2.46,2.46,0,0,1-.982-2.118,3.067,3.067,0,0,1,1.157-2.511,5.033,5.033,0,0,1,3.254-.939,4.3,4.3,0,0,1,1.9.393,3.82,3.82,0,0,1,1.353,1.092,7.447,7.447,0,0,1,.939,1.594,19.116,19.116,0,0,1,.7,1.856h.48v-4.979h-.48a.762.762,0,0,1-.7.35,2.046,2.046,0,0,1-.83-.153q-.35-.152-.786-.306t-1.026-.306a6.387,6.387,0,0,0-1.55-.153,7.055,7.055,0,0,0-2.511.437,5.789,5.789,0,0,0-3.3,3.057,5.382,5.382,0,0,0-.481,2.271,5.749,5.749,0,0,0,.415,2.358,4.477,4.477,0,0,0,1.07,1.507,5.14,5.14,0,0,0,1.42.917q.763.328,1.419.546l3.406,1.179a6.668,6.668,0,0,1,1.987,1.07,2.822,2.822,0,0,1,.851,2.336,3.3,3.3,0,0,1-1.092,2.773,3.942,3.942,0,0,1-2.489.852,6.489,6.489,0,0,1-2.838-.568,6.347,6.347,0,0,1-1.987-1.463,7.482,7.482,0,0,1-1.288-1.965,16.234,16.234,0,0,1-.786-2.118h-.48v6.114h.48A1.828,1.828,0,0,1,511.926,597.047Z" transform="translate(7893.077 -107.237)" fill="#fff"/>
    <path id="Path_62" data-name="Path 62" d="M277.339,659.5a1.192,1.192,0,0,0-.391-.5,1.312,1.312,0,0,0-.473-.2,4.159,4.159,0,0,0-.849-.062h-.975v5.346h.486v-2.4h.562a2.1,2.1,0,0,0,1.351-.356,1.376,1.376,0,0,0,.427-1.119A1.748,1.748,0,0,0,277.339,659.5Zm-.681,1.528a2.172,2.172,0,0,1-1.189.224h-.332v-2.1h.332a3.623,3.623,0,0,1,.829.065.774.774,0,0,1,.387.227,1.067,1.067,0,0,1,.208.356,1.316,1.316,0,0,1,.069.437A.916.916,0,0,1,276.658,661.026Z" transform="translate(8037.435 -156.429)" fill="#fff"/>
    <path id="Path_63" data-name="Path 63" d="M285.924,663.745l-2.249-5.557-2.348,5.557h.493l.708-1.811h2.184l.683,1.811Zm-3.231-2.227.949-2.326.913,2.326Z" transform="translate(8033.359 -156.097)" fill="#fff"/>
    <path id="Path_64" data-name="Path 64" d="M297.384,660.188a1.346,1.346,0,0,0-.433-1.1,1.994,1.994,0,0,0-1.3-.361h-.982v5.346h.486v-2.549h.292l1.877,2.549h.591l-1.921-2.549a1.408,1.408,0,0,0,1.021-.358A1.3,1.3,0,0,0,297.384,660.188Zm-.794.724a1.545,1.545,0,0,1-.948.217h-.489v-1.975h.489a1.468,1.468,0,0,1,.938.234.976.976,0,0,1,.278.785A.9.9,0,0,1,296.59,660.913Z" transform="translate(8025.214 -156.429)" fill="#fff"/>
    <rect id="Rectangle_26" data-name="Rectangle 26" width="0.486" height="5.346" transform="translate(8323.829 502.302)" fill="#fff"/>
    <path id="Path_65" data-name="Path 65" d="M309.907,664.019a1.452,1.452,0,0,0,1.563-1.562,1.5,1.5,0,0,0-.23-.868,2.687,2.687,0,0,0-.913-.71l-.255-.135q-.927-.485-.927-1.048a.845.845,0,0,1,.234-.626.854.854,0,0,1,.628-.232,1.014,1.014,0,0,1,.505.12.815.815,0,0,1,.331.351l.376-.227a1.276,1.276,0,0,0-.484-.509,1.389,1.389,0,0,0-.7-.17,1.409,1.409,0,0,0-1,.358,1.208,1.208,0,0,0-.385.927,1.192,1.192,0,0,0,.266.782,3.686,3.686,0,0,0,1.073.752,2.606,2.606,0,0,1,.823.592,1.039,1.039,0,0,1,.192.643,1.154,1.154,0,0,1-.285.828,1.041,1.041,0,0,1-.792.3,1.108,1.108,0,0,1-.689-.217,1.151,1.151,0,0,1-.4-.612l-.416.222a1.7,1.7,0,0,0,.586.78A1.53,1.53,0,0,0,309.907,664.019Z" transform="translate(8016.817 -156.229)" fill="#fff"/>
  </g>
</svg>
