<svg xmlns="http://www.w3.org/2000/svg" width="193.992" height="296.911" viewBox="0 0 193.992 296.911">
  <g id="Group_49" data-name="Group 49" transform="translate(-277.664 -343.011)">
    <path id="Path_450" data-name="Path 450" d="M282.08,388.726c-.757,12.581-4.474,103.952,44.2,137.392l.358.358c.181.153,3.953,3.554,44.167,31.879,38.346-27.284,44.366-32.116,44.431-32.167,48.752-33.509,45.045-124.881,44.287-137.461-21.756.567-31.01-16.873-32.994-21.24H315.083c-1.984,4.367-11.229,21.737-33,21.24m89.248,172.945h-.957l-.474-.274c-26.146-18.42-42.824-30.494-45.379-32.84-53.43-36.794-45.421-140.476-45.333-141.522l.121-1.459,1.464.088c23.665,1.408,31.837-19.981,31.916-20.2l.362-.989H428.572l.358.989c.325.874,8.232,21.57,31.907,20.2l1.463-.088.121,1.459c.093,1.045,8.107,104.807-45.389,141.559-.13.121-6.007,4.832-45.314,32.8Z" transform="translate(3.815 78.251)" fill="#c2c2c2"/>
    <path id="Path_451" data-name="Path 451" d="M284.014,388.684c-.7,11.842-3.837,93.453,39.721,123.385.2.144,16.065,11.758,39.985,28.933,37.672-27.335,39.921-28.887,40.009-28.947,43.558-29.927,40.4-111.529,39.7-123.371-19.5.255-27.772-15.029-29.649-19.117H313.668c-1.877,4.088-10.23,19.586-29.653,19.117M364.25,544.333h-.976l-.464-.279c-24.4-17.524-40.65-29.421-40.812-29.537-25.235-17.342-35.005-51.154-38.755-76.468a249.917,249.917,0,0,1-2.128-51.042l.121-1.463,1.463.084c21.194,1.264,28.5-17.886,28.571-18.086l.362-.976H415.808l.372.976c.293.79,7.424,19.317,28.562,18.086l1.468-.084.116,1.463a249.326,249.326,0,0,1-2.123,51.042c-3.749,25.314-13.519,59.126-38.782,76.491-.093.07-2.75,1.909-40.78,29.509Z" transform="translate(10.898 85.874)" fill="#c2c2c2"/>
    <path id="Path_452" data-name="Path 452" d="M285.87,362.077c.674,1.454,1.287,2.815,1.826,4.046H401.8c.534-1.231,1.143-2.592,1.826-4.046Z" transform="translate(29.915 69.509)" fill="#c2c2c2"/>
    <path id="Path_453" data-name="Path 453" d="M442.808,406.9h-136.3c-9.073-16.083-17.733-30.188-25.751-41.969,3.661.051,12.924.53,17.1,4.023a8.024,8.024,0,0,1,2.592,8.121,1.071,1.071,0,0,0,1.993.767c.06-.1,5.7-11.424,16.353-11.424,4.529,0,7.977,1.268,10.253,3.781a11.855,11.855,0,0,1,2.769,9.129c-.465,4.883-4.065,8.595-6.778,10.732.581-2.053.609-4.557-1.617-6.327a8.679,8.679,0,0,0-5.422-1.886,8,8,0,0,0-5.919,2.5c-1.255,1.333-2.69,3.814-2.43,8.065.414,6.62,6.513,11.814,13.881,11.809,6.379,0,12.195-3.763,16.111-10.383,2.16,1.686,7.475,5.352,13.793,6.169a15.954,15.954,0,0,0,2.169.149,11.364,11.364,0,0,0,11.494-9.454,8.571,8.571,0,0,0-1.687-7.178,8.37,8.37,0,0,0-6.374-2.936,7.819,7.819,0,0,0-5.185,1.923,6.186,6.186,0,0,0-1.974,6.741,8,8,0,0,0,1,2.063c-4.241-.618-11.479-2.825-13.686-10.495a12.515,12.515,0,0,1,1.087-10.355,15.757,15.757,0,0,1,9.208-6.68,14.712,14.712,0,0,1,2.852-.293,15.152,15.152,0,0,1,10.964,5.189.656.656,0,0,0,.158.163,1.773,1.773,0,0,0,1.1.409,1.468,1.468,0,0,0,.994-.39,1.451,1.451,0,0,0,.2-2c-.037-.042-3.944-4.641-3.308-8.288.79-4.525,5.161-7.391,8.678-9.7a22.89,22.89,0,0,0,3.526-2.611,23.041,23.041,0,0,0,3.535,2.611c3.512,2.313,7.888,5.18,8.683,9.7.632,3.647-3.275,8.246-3.368,8.353a1.45,1.45,0,0,0,.246,1.937,1.5,1.5,0,0,0,1.008.39,1.81,1.81,0,0,0,1.092-.409.585.585,0,0,0,.158-.163,15.017,15.017,0,0,1,10.964-5.189,14.546,14.546,0,0,1,2.843.293,15.775,15.775,0,0,1,9.217,6.667,12.606,12.606,0,0,1,1.082,10.369c-2.193,7.638-9.375,9.849-13.677,10.49a7.781,7.781,0,0,0,.99-2.058,6.169,6.169,0,0,0-1.97-6.741,7.813,7.813,0,0,0-5.189-1.923,8.377,8.377,0,0,0-6.374,2.936A8.621,8.621,0,0,0,382.2,390.7a11.382,11.382,0,0,0,11.5,9.454,15.972,15.972,0,0,0,2.174-.149c6.309-.818,11.624-4.483,13.788-6.169,3.912,6.62,9.728,10.388,16.111,10.383,7.368,0,13.468-5.189,13.877-11.809.27-4.251-1.171-6.732-2.42-8.065a8.016,8.016,0,0,0-5.923-2.5,8.714,8.714,0,0,0-5.431,1.886c-2.216,1.779-2.193,4.283-1.6,6.332-2.718-2.132-6.318-5.835-6.783-10.731a11.854,11.854,0,0,1,2.769-9.134c2.276-2.513,5.724-3.781,10.253-3.781,10.62,0,16.3,11.321,16.353,11.433a1.076,1.076,0,0,0,1.356.52,1.059,1.059,0,0,0,.632-1.3,8.109,8.109,0,0,1,2.6-8.121c4.172-3.494,13.44-3.972,17.1-4.023-8.023,11.781-16.678,25.886-25.751,41.969m1.756,3.935H304.756a.894.894,0,1,1,0-1.789H444.564a.894.894,0,0,1,0,1.789m-8.869,8.929H313.625q-1.763-3.254-3.721-6.787H439.412q-1.951,3.526-3.717,6.787m2.667,3.043a.893.893,0,0,1-.9.892H311.846a.892.892,0,1,1,0-1.784h125.62a.89.89,0,0,1,.9.892M471.546,363.4a1.073,1.073,0,0,0-.915-.59s-.52-.023-1.407-.023c-4.125,0-14.272.437-19.145,4.53a9.685,9.685,0,0,0-3.47,6.086c-2.76-3.744-8.111-9.129-16.088-9.129-5.152,0-9.133,1.514-11.842,4.483a14,14,0,0,0-3.317,10.778c.869,9.1,10.578,14.285,10.992,14.495a1.073,1.073,0,0,0,1.384-1.552c-.037-.056-3.289-4.85-.511-7.071A6.531,6.531,0,0,1,431.314,384a5.926,5.926,0,0,1,4.358,1.816c1.384,1.473,2.016,3.7,1.849,6.472-.349,5.5-5.5,9.8-11.74,9.8-5.923,0-11.335-3.791-14.871-10.383a1.027,1.027,0,0,0-.757-.553,1.04,1.04,0,0,0-.9.255c-.065.056-6.244,5.515-13.663,6.485a13.91,13.91,0,0,1-1.886.125,9.25,9.25,0,0,1-9.389-7.693,6.338,6.338,0,0,1,1.231-5.417,6.181,6.181,0,0,1,4.72-2.17,5.686,5.686,0,0,1,3.772,1.394,4.025,4.025,0,0,1,1.366,4.413,4.832,4.832,0,0,1-2.295,3.034,1.073,1.073,0,0,0,.1,2.137h.172c1.561,0,15.368-.339,18.8-12.3a14.637,14.637,0,0,0-1.31-12.065,17.965,17.965,0,0,0-10.625-7.665,17.049,17.049,0,0,0-3.271-.33,16.263,16.263,0,0,0-9.194,2.908,10.17,10.17,0,0,0,1.2-6.058c-.943-5.436-5.951-8.725-9.612-11.122-1.44-.952-3.633-2.392-3.633-3a1.075,1.075,0,0,0-2.151,0c0,.609-2.188,2.049-3.633,3-3.656,2.4-8.664,5.686-9.6,11.122a10.125,10.125,0,0,0,1.189,6.058,16.3,16.3,0,0,0-9.189-2.908,17.123,17.123,0,0,0-3.271.33,17.973,17.973,0,0,0-10.63,7.665,14.636,14.636,0,0,0-1.305,12.065c3.428,11.958,17.231,12.3,18.8,12.3h.172a1.053,1.053,0,0,0,1.022-1,1.1,1.1,0,0,0-.92-1.134,4.8,4.8,0,0,1-2.3-3.034,4.02,4.02,0,0,1,1.371-4.413,5.662,5.662,0,0,1,3.763-1.394,6.215,6.215,0,0,1,4.729,2.17A6.382,6.382,0,0,1,365,390.318a9.239,9.239,0,0,1-9.384,7.693,14.071,14.071,0,0,1-1.891-.125c-7.424-.971-13.6-6.43-13.658-6.485a1.063,1.063,0,0,0-.906-.255,1.052,1.052,0,0,0-.757.553c-3.521,6.592-8.938,10.383-14.862,10.383-6.244,0-11.4-4.3-11.74-9.8-.172-2.769.474-5,1.854-6.472A5.893,5.893,0,0,1,318.006,384a6.531,6.531,0,0,1,4.088,1.408c2.769,2.221-.469,7.015-.506,7.071a1.07,1.07,0,0,0,1.38,1.552c.414-.209,10.118-5.4,10.992-14.495a14,14,0,0,0-3.312-10.778c-2.713-2.969-6.694-4.483-11.846-4.483-7.981,0-13.329,5.375-16.088,9.129a9.691,9.691,0,0,0-3.479-6.086c-4.864-4.093-15.006-4.53-19.136-4.53-.883,0-1.408.023-1.408.023a1.067,1.067,0,0,0-.915.59,1.087,1.087,0,0,0,.079,1.087C286,376.3,294.819,390.6,304.092,406.978a3.035,3.035,0,0,0,.664,6h2.7c1.315,2.374,2.564,4.655,3.758,6.862a3.034,3.034,0,0,0,.632,6h125.62a3.034,3.034,0,0,0,.636-6c1.194-2.207,2.448-4.488,3.763-6.862h2.7a3.033,3.033,0,0,0,.669-5.993c9.268-16.385,18.095-30.68,26.234-42.5a1.087,1.087,0,0,0,.079-1.087" fill="#c2c2c2"/>
    <path id="Path_454" data-name="Path 454" d="M288.666,408.185l4.335,1.24,4.855-16.929c-.446.088-.943.153-1.5.214l-4.943.46-.209-.437q2.85-.251,5.217-.553a24.354,24.354,0,0,0,4.6-1.05l.785.223-5.463,19.038,4.33,1.24-.111.376-12.009-3.442Z" transform="translate(39.718 175.431)" fill="#c2c2c2"/>
    <path id="Path_455" data-name="Path 455" d="M298.673,395.564a2.877,2.877,0,0,0,.237,1.556,3.509,3.509,0,0,0,1.008,1.208,6,6,0,0,0,.808.525c.362.2.767.409,1.2.627s.915.441,1.426.664,1.008.441,1.505.66a7.012,7.012,0,0,0,1.036-.418,4.786,4.786,0,0,0,1.027-.72,3.845,3.845,0,0,0,1.259-2.574,7.55,7.55,0,0,0-.014-1.621,3.453,3.453,0,0,0-.474-1.435,2.929,2.929,0,0,0-1.226-1.087,5.965,5.965,0,0,0-2.2-.576,6.469,6.469,0,0,0-3.935.669,3.125,3.125,0,0,0-1.659,2.523m-1.84,11.345a4.886,4.886,0,0,0,.139,1.77,3.885,3.885,0,0,0,.832,1.575,4.563,4.563,0,0,0,1.645,1.185,7.983,7.983,0,0,0,2.569.622,5.919,5.919,0,0,0,2.416-.237,6.843,6.843,0,0,0,1.932-.962,4.758,4.758,0,0,0,1.306-1.4,3.548,3.548,0,0,0,.557-1.542,3.083,3.083,0,0,0-.441-2.035,5.211,5.211,0,0,0-1.533-1.505,14.672,14.672,0,0,0-2.244-1.236c-.85-.372-1.7-.757-2.56-1.157a8.589,8.589,0,0,0-2.23.808,4.809,4.809,0,0,0-1.37,1.11,3.9,3.9,0,0,0-.725,1.389,9.541,9.541,0,0,0-.293,1.612m-3.289-.5a3.093,3.093,0,0,1,.934-2,7.141,7.141,0,0,1,1.96-1.352,11.53,11.53,0,0,1,2.365-.832c.818-.209,1.514-.367,2.1-.474-.753-.316-1.468-.655-2.123-1a7.911,7.911,0,0,1-1.686-1.166,4.187,4.187,0,0,1-1.05-1.45,3.927,3.927,0,0,1-.246-1.914,3.168,3.168,0,0,1,.9-1.928,6.477,6.477,0,0,1,1.984-1.412,10.556,10.556,0,0,1,2.662-.795,11.941,11.941,0,0,1,2.964-.1,12.174,12.174,0,0,1,2.676.548,8.855,8.855,0,0,1,2.286,1.05,5.182,5.182,0,0,1,1.528,1.459,2.582,2.582,0,0,1,.474,1.751,2.837,2.837,0,0,1-.59,1.524,5,5,0,0,1-1.329,1.129,11.023,11.023,0,0,1-1.835.878c-.678.246-1.37.488-2.1.72.757.33,1.519.7,2.281,1.092a11.089,11.089,0,0,1,2.03,1.347,6.365,6.365,0,0,1,1.417,1.672,3.275,3.275,0,0,1,.423,1.988,4.547,4.547,0,0,1-.864,2.267,6.3,6.3,0,0,1-2.058,1.775,10.72,10.72,0,0,1-3.122,1.078,14.416,14.416,0,0,1-4.023.13,13.322,13.322,0,0,1-3.294-.7,9.6,9.6,0,0,1-2.588-1.329,5.8,5.8,0,0,1-1.621-1.807,3.624,3.624,0,0,1-.446-2.156" transform="translate(57.818 178.366)" fill="#c2c2c2"/>
    <path id="Path_456" data-name="Path 456" d="M303,402.694a36.959,36.959,0,0,0,.576,4.427,9.793,9.793,0,0,0,1.055,3.006,3.947,3.947,0,0,0,1.784,1.659,6.779,6.779,0,0,0,5.491-.441,3.9,3.9,0,0,0,1.5-1.923,9.455,9.455,0,0,0,.557-3.136,38.253,38.253,0,0,0-.13-4.46,38.773,38.773,0,0,0-.585-4.418,9.516,9.516,0,0,0-1.055-2.992,3.828,3.828,0,0,0-1.77-1.649,6.783,6.783,0,0,0-5.505.437,3.9,3.9,0,0,0-1.491,1.914,9.748,9.748,0,0,0-.567,3.131,36.335,36.335,0,0,0,.139,4.446m-4.046.325a16.285,16.285,0,0,1,.107-3.5,8.977,8.977,0,0,1,1.161-3.442,8.064,8.064,0,0,1,2.695-2.708,12.173,12.173,0,0,1,9.5-.767,8.034,8.034,0,0,1,3.094,2.244,9.184,9.184,0,0,1,1.7,3.21,16.712,16.712,0,0,1,.664,3.452,17.128,17.128,0,0,1-.111,3.526,8.985,8.985,0,0,1-1.161,3.438,7.911,7.911,0,0,1-2.694,2.713,12.159,12.159,0,0,1-9.5.767,8.05,8.05,0,0,1-3.1-2.244,9.17,9.17,0,0,1-1.7-3.21,17.122,17.122,0,0,1-.664-3.475" transform="translate(77.419 178.456)" fill="#c2c2c2"/>
    <path id="Path_457" data-name="Path 457" d="M325.094,408.677l-17.9,4.85-.1-.376c.855-.864,1.64-1.659,2.346-2.393.729-.734,1.389-1.435,1.988-2.123.623-.678,1.194-1.37,1.742-2.058s1.087-1.4,1.64-2.17a12.968,12.968,0,0,0,2.328-4.971,9,9,0,0,0-.06-3.87,4.471,4.471,0,0,0-6.295-3.531,8.2,8.2,0,0,0-3.131,1.491,1.916,1.916,0,0,0-.832,2.025,1.434,1.434,0,0,0,.465.7,1.6,1.6,0,0,1,.469.72.76.76,0,0,1-.283.808,2.67,2.67,0,0,1-1.036.53,3.215,3.215,0,0,1-1.5.088,1.143,1.143,0,0,1-.878-.915,2.251,2.251,0,0,1,.214-1.542,5.651,5.651,0,0,1,1.278-1.64,10.656,10.656,0,0,1,2.2-1.5,13.559,13.559,0,0,1,2.932-1.138,15.255,15.255,0,0,1,4.014-.6,9.089,9.089,0,0,1,3.006.474,5.239,5.239,0,0,1,2.021,1.24,4.222,4.222,0,0,1,1.031,1.8,5.1,5.1,0,0,1,.1,2.379,8.016,8.016,0,0,1-.864,2.318,15.755,15.755,0,0,1-1.547,2.29c-.6.757-1.25,1.524-1.933,2.309-.962,1.124-1.9,2.211-2.839,3.243s-1.97,2.174-3.1,3.377l8.957-2.43a5.951,5.951,0,0,0,3.131-1.663,3.338,3.338,0,0,0,.674-2.448l.432-.121Z" transform="translate(96.046 175.157)" fill="#c2c2c2"/>
    <path id="Path_458" data-name="Path 458" d="M378.412,434.779a38.337,38.337,0,0,1-11.178,15.243,45.838,45.838,0,0,1-12.227,6.694c1.2-.7,2.267-1.31,3.168-1.835a13.985,13.985,0,0,0,2.1-1.449q15.414-11.819,15.414-37.565a66.267,66.267,0,0,0-4.232-23.9,32.995,32.995,0,0,0-11.02-14.193A16.626,16.626,0,0,0,357.869,376c-1-.567-2.17-1.157-3.47-1.77a41.228,41.228,0,0,1,18.574,12.608q8.913,10.906,8.91,28.631a52.825,52.825,0,0,1-3.47,19.312M332.68,459.085c-2.323,0-4.641-.07-6.969-.2s-4.743-.283-7.271-.46v-86.3q7.874-.39,13.185-.395,11.658,0,18.625,2.634a30.11,30.11,0,0,1,19.238,18.155,63.736,63.736,0,0,1,3.182,11.247,66.135,66.135,0,0,1,1.064,12.042,63.454,63.454,0,0,1-3.034,19.465,33.269,33.269,0,0,1-11.661,16.966q-9.24,6.843-26.359,6.848m-21.491-.66H305.9v-86.3h5.287Zm52.571-82.884q-12.383-5.387-31.726-5.394c-1,0-2.541.028-4.6.074s-4.711.107-7.935.2c-3.322.084-5.942.153-7.851.2s-3.122.065-3.624.065H288.23v1.445h16.009v86.3H288.23v1.579h19.791q4.23,0,11.331.39,8.76.39,13.138.39a110.971,110.971,0,0,0,17.068-1.18,50.745,50.745,0,0,0,28.706-13.923q12.084-12.076,12.084-30.336,0-15.77-8.6-26.406-6.362-8.292-17.983-13.4" transform="translate(38.519 98.933)" fill="#c2c2c2"/>
  </g>
</svg>
