<svg xmlns="http://www.w3.org/2000/svg" width="74.34" height="70" viewBox="0 0 74.34 70">
  <g id="Group_150" data-name="Group 150" transform="translate(-250.667 -194.701)">
    <path id="Path_465" data-name="Path 465" d="M312.923,264.7H262.75a.485.485,0,0,1-.485-.485v-31.86H251.152a.485.485,0,0,1-.343-.828l36.685-36.685a.485.485,0,0,1,.686,0l36.685,36.685a.485.485,0,0,1-.343.828H313.408v31.86A.485.485,0,0,1,312.923,264.7Zm-49.688-.97h49.2V231.87a.484.484,0,0,1,.485-.485h10.429l-35.515-35.515-35.515,35.515H262.75a.484.484,0,0,1,.485.485Z" fill="#153b5e"/>
  </g>
</svg>
