<svg xmlns="http://www.w3.org/2000/svg" xmlns:xlink="http://www.w3.org/1999/xlink" width="72.854" height="72.854" viewBox="0 0 72.854 72.854">
  <defs>
    <clipPath id="clip-path">
      <rect width="101" height="2.029" fill="none"/>
    </clipPath>
  </defs>
  <g id="Group_220" data-name="Group 220" transform="translate(-647 -2830.59)">
    <g id="Component_2_141" data-name="Component 2 – 141" transform="translate(648.436 2830.59) rotate(45)" clip-path="url(#clip-path)">
      <path id="Path_15" data-name="Path 15" d="M93.414,1.511c-2.312,0-4.184-.221-4.184-.5s1.872-.5,4.184-.5,4.182.221,4.182.5-1.872.5-4.182.5M93.148,0C89.262.018,86.59.188,81.921.188,59.49.188,0,.288,0,1.014s59.49.827,81.921.827c4.669,0,7.341.17,11.227.187,8.375.038,7.845-1.015,7.845-1.015S101.523-.037,93.148,0" transform="translate(101 2.029) rotate(180)" fill="#153b5e"/>
    </g>
    <g id="Component_2_142" data-name="Component 2 – 142" transform="translate(719.854 2832.026) rotate(135)" clip-path="url(#clip-path)">
      <path id="Path_15-2" data-name="Path 15" d="M93.414,1.511c-2.312,0-4.184-.221-4.184-.5s1.872-.5,4.184-.5,4.182.221,4.182.5-1.872.5-4.182.5M93.148,0C89.262.018,86.59.188,81.921.188,59.49.188,0,.288,0,1.014s59.49.827,81.921.827c4.669,0,7.341.17,11.227.187,8.375.038,7.845-1.015,7.845-1.015S101.523-.037,93.148,0" transform="translate(101 2.029) rotate(180)" fill="#153b5e"/>
    </g>
  </g>
</svg>
