<svg xmlns="http://www.w3.org/2000/svg" width="20.22" height="19.75" viewBox="0 0 20.22 19.75">
  <g id="Group_31" data-name="Group 31" transform="translate(-203.417 -222.5)">
    <path id="Path_153" data-name="Path 153" d="M235.08,270.5a.329.329,0,0,0-.329.329v13.637a.612.612,0,0,1-.611.611H219.187a.612.612,0,0,1-.611-.611V270.829a.329.329,0,0,0-.658,0v13.637a1.271,1.271,0,0,0,1.27,1.27H234.14a1.271,1.271,0,0,0,1.27-1.27V270.829A.329.329,0,0,0,235.08,270.5Z" transform="translate(-13.136 -43.486)" fill="#951818"/>
    <path id="Path_154" data-name="Path 154" d="M223.308,225.227h-7.179V223.77a1.271,1.271,0,0,0-1.27-1.27h-2.665a1.271,1.271,0,0,0-1.27,1.27v1.458h-7.179a.329.329,0,0,0,0,.658h19.561a.329.329,0,1,0,0-.658Zm-7.837,0h-3.887V223.77a.612.612,0,0,1,.611-.611h2.665a.612.612,0,0,1,.611.611Z" fill="#951818"/>
    <path id="Path_155" data-name="Path 155" d="M308.075,294.645V283.829a.329.329,0,1,0-.658,0v10.815a.329.329,0,1,0,.658,0Z" transform="translate(-94.219 -55.263)" fill="#951818"/>
    <path id="Path_156" data-name="Path 156" d="M352.825,306.62v-8.041a.329.329,0,1,0-.658,0v8.041a.329.329,0,0,0,.658,0Z" transform="translate(-134.761 -68.626)" fill="#951818"/>
    <path id="Path_157" data-name="Path 157" d="M263.325,306.62v-8.041a.329.329,0,1,0-.658,0v8.041a.329.329,0,0,0,.658,0Z" transform="translate(-53.678 -68.626)" fill="#951818"/>
  </g>
</svg>
