<svg xmlns="http://www.w3.org/2000/svg" width="70" height="2000.882" viewBox="0 0 134.051 2000.882">
  <g id="Group_220" data-name="Group 220" transform="translate(-588.703 -750.25)">
    <path id="Path_460" data-name="Path 460" d="M20272.25,2738s-5.25-19.25,4-41.5,34.75-34.25,35-54.5-14-19.25-22.25-9.75,1,17,9.5,8.25,11.5-34.5,3-54.75-43-30-61.25-2,17,50,33.25,21.25,4-79-2.75-117-3.5-41.25,2.25-124.25-5-99.5-6.75-107.5,8-21,6.5-35-7.25-10.75-2.75-22,5.25-8,2.75-23.5,2.25-55.25,4-74.25-5.25-19.75-5.5-32.75,8-18.5,1.5-46.75,1-30.75,1.5-41.25-13-4.75-5-23.25-3-44,0-55.25,6-45.75,3.5-58.75-9.5-29.25,12.75-45.75,29.5,2.5,22.75,9S20260.5,1823,20268,1771s10-118.5,4.5-152,4-66,7.166-91.5S20277,1441,20272.5,1406s6.5-87.5,7.166-128.5-24.666-84.5-20.166-100-3.5-13.5-5-40.5,23.166-90.667,25.166-124-13-65.667-17.666-84.667,56.6,2.667-4-42.333" transform="translate(-19589 13)" fill="none" stroke="#153b5e" stroke-width="1"/>
    <path id="Path_459" data-name="Path 459" d="M-315.961-64.71a6.215,6.215,0,0,1-.707.473,10.311,10.311,0,0,1-6.34,1.435c-1.833-.178-3.673-.189-5.508-.369a43.774,43.774,0,0,1-17.108-5.4,8.752,8.752,0,0,0-5.918-.762,3.369,3.369,0,0,0-1.787.755,1.71,1.71,0,0,1-2.516.193,9.774,9.774,0,0,1-4.456-5.253,1.764,1.764,0,0,1-1.158-1.147,1.979,1.979,0,0,1,1.379.98c.7.192.965.867,1.4,1.324,1.2,1.259,2.663,2.239,3.78,3.584a.389.389,0,0,0,.563,0l-.027-.045a11.384,11.384,0,0,0-2.217-2.826,14.229,14.229,0,0,0-3.728-3.507,66.206,66.206,0,0,0-8.73-4.53,38.063,38.063,0,0,0-3.815-1.494c-1.241-.326-2.475-.676-3.716-1a42.348,42.348,0,0,0-15.768-1.334,34.19,34.19,0,0,1-4.755.334,47.437,47.437,0,0,0-11.651,1.547,12.84,12.84,0,0,0-1.887.612,42.993,42.993,0,0,0-7.407,3.939,28.426,28.426,0,0,1-7.418,3.713,11.19,11.19,0,0,0-4.487,2.674q-2.339,2.183-4.527,4.525a21.938,21.938,0,0,0-3.72,4.957c-1.446,2.859-3.17,5.568-4.347,8.576-1.471,3.761-2.976,7.49-3.5,11.538a41.137,41.137,0,0,0-.239,10.872c.107.794.459,1.487.555,2.259.155,1.245.329,2.487.484,3.733a11.251,11.251,0,0,0,.4,2.953c.484,1.131.422,2.333.818,3.467a22.081,22.081,0,0,1,.575,3.33,17.891,17.891,0,0,0,1.006,4.665c1.218,2.552,2.223,5.2,3.618,7.676a8.7,8.7,0,0,0,3.3,3.486,16.075,16.075,0,0,1,2.2,1.6c.878.7,1.764,1.385,2.7,2.008a27.044,27.044,0,0,1,3.864,2.946,13.243,13.243,0,0,0,2.5,1.858,23.273,23.273,0,0,1,4.461,3.077,14.2,14.2,0,0,0,3.465,2.423,18.322,18.322,0,0,0,5.41,1.6,66.885,66.885,0,0,0,7.961.987c3.971.159,7.946.266,11.912.508a34.772,34.772,0,0,0,11.372-1.154,16.319,16.319,0,0,0,4.991-1.749,11.278,11.278,0,0,1,1.857-1.007A25.742,25.742,0,0,0-365.443,9.7a24.468,24.468,0,0,1,4.47-3.071,13.826,13.826,0,0,0,3.262-2.437,10.444,10.444,0,0,1,.964-.968,32.791,32.791,0,0,0,4.42-4.755c1.3-1.57,1.99-3.547,3.225-5.183a12.133,12.133,0,0,0,2.065-4.23c.265-1,.581-1.986.928-2.96a44.36,44.36,0,0,0,2.022-9.381c.3-2.4.458-4.806.822-7.2a48.618,48.618,0,0,0,.153-10.393c-.136-2.131-.6-4.217-.715-6.353a23.186,23.186,0,0,0-1.738-6.859c-.45-1.2-.963-2.378-1.395-3.589a12,12,0,0,0-3.328-5.333,1.619,1.619,0,0,1-.481-.569A21.262,21.262,0,0,0-352.93-66.9c-.215-.346-.175-.564.111-.719a5.912,5.912,0,0,1,5.907-.33c.7.366,1.37.78,2.058,1.165a44.929,44.929,0,0,0,6.27,2.727,28.122,28.122,0,0,0,5.271,1.526,78.311,78.311,0,0,0,10.975.982,12.438,12.438,0,0,0,6.218-1.467,5.4,5.4,0,0,0,.861-.57ZM-353.854-66.6c.179-.011.194.055.236.146.459,1,.02,1.654-.693,2.372a42.612,42.612,0,0,0-4.874,5.71,10.153,10.153,0,0,1-3.687,3.677,2.635,2.635,0,0,0-.834.746c-1.084,1.367-2.117,2.772-3.216,4.126a23.394,23.394,0,0,1-6.256,5.161c-.055.033-.153-.006-.423-.024a13.787,13.787,0,0,1,2.2-2.355,30.888,30.888,0,0,0,3.935-4.383,12.49,12.49,0,0,1,2.145-2.28,8.919,8.919,0,0,0,1.568-1.619,9.821,9.821,0,0,1,1.866-1.849,15.39,15.39,0,0,0,3.652-3.934,9.353,9.353,0,0,1,.931-1.178,3.929,3.929,0,0,0,.994-1.433A5.607,5.607,0,0,1-353.854-66.6Zm-43.164,35.531a20.937,20.937,0,0,1,.782-7.4,11.9,11.9,0,0,0,.653-3.811,34.823,34.823,0,0,1,1.19-7.781q1.552-6.264,2.689-12.616c.218-1.231.579-2.436.869-3.655.13-.545.406-.882,1-.8.174.241.056.434-.007.624a91.123,91.123,0,0,0-2.281,8.849,53.849,53.849,0,0,0-1.1,8.055,38.434,38.434,0,0,1-.927,4.4,10.273,10.273,0,0,0-.262,1.1c-.25,3.583-.877,7.136-.883,10.737,0,.126-.006.252,0,.377C-395.286-31.49-395.285-31.49-397.018-31.064Zm1.158.841-.008.06-.076-.041Zm-2.169-3.24a20.912,20.912,0,0,0-.079,3c.045.238-.112.384-.29.507a5.937,5.937,0,0,1-1.487.84A27.815,27.815,0,0,1-399.4-34.9a38.555,38.555,0,0,0,.95-6.306,28.627,28.627,0,0,1,.6-4.333c.494-2.412,1.06-4.81,1.426-7.25A66.5,66.5,0,0,1-394.081-62c.361-1.2.567-2.439.881-3.65a5.054,5.054,0,0,1,.233-.845c.205-.45.635-.367.977-.261s.153.405.1.638q-1.508,7.041-3.015,14.08c-.079.366-.19.726-.284,1.089a35.36,35.36,0,0,0-1.387,8.628,11.389,11.389,0,0,1-.578,3.445A15.052,15.052,0,0,0-398.028-33.464Zm-.469,4.876c0,.009-.009.019-.013.026l-.059.027-.063.064c.01-.017.017-.04.032-.05a.2.2,0,0,1,.03-.014l.043-.043.029-.01c.018-.037.037-.08.047-.078C-398.38-28.652-398.4-28.62-398.5-28.588Zm-15.342,6.482a9.97,9.97,0,0,1,3.392-1.556c3.539-1.261,6.9-2.955,10.412-4.26.3-.11.563-.36.957-.257-.082.118-.129.269-.218.3-1.832.663-3.17,2.1-4.812,3.067-1.763,1.039-3.672,1.78-5.428,2.839-1.146.692-2.563.689-3.864.98a.711.711,0,0,1-.807-.453C-414.42-21.834-414.045-21.928-413.84-22.106Zm-1.124-.756c-.23-.125-.054-.386.276-.4a3.3,3.3,0,0,1,.446.058C-414.443-22.845-414.653-22.694-414.963-22.862Zm6.22-7.37c-.074.241-.345.19-.54.144-1.721-.4-3.4-.941-5.345-1.589a4.392,4.392,0,0,1,2.013.322c.891.243,1.815.238,2.709.432a4.477,4.477,0,0,1,.716.224C-408.974-30.615-408.639-30.575-408.743-30.232ZM-437.93-47.249c.058.586-.5.349-.955.335a31.358,31.358,0,0,1,2.195-6.21,64.859,64.859,0,0,1,3.917-6.529,24.644,24.644,0,0,1,2.892-3.282,29.05,29.05,0,0,1,2.549-2.579,17.713,17.713,0,0,1,6.031-3.222,12.63,12.63,0,0,0,4.206-2.178,6.322,6.322,0,0,1,1.762-.943c1.643-.617,3.284-1.248,4.955-1.78.852-.272,1.513-.873,2.368-1.131,2.166-.651,4.4-.99,6.6-1.465,1.917-.413,3.839-.813,5.772-1.147a23.4,23.4,0,0,1,3.364-.338c2.8-.072,5.605-.089,8.409-.1a12.473,12.473,0,0,1,4.667.795,27.57,27.57,0,0,0,3.639.944,18.41,18.41,0,0,1,3.807,1.587,1.292,1.292,0,0,1,.79.692,9.948,9.948,0,0,1-2.168-.54c-2.208-.659-4.482-1-6.738-1.437a43.92,43.92,0,0,0-6.23-.624,12.48,12.48,0,0,0-2.743.149c-1.892.327-3.814.436-5.688.915a8.773,8.773,0,0,1-2.751.114c-2.965-.211-5.8.517-8.663,1.12-4.351.918-8.075,3.143-11.777,5.431-1.5.926-3.038,1.764-4.555,2.648a37.589,37.589,0,0,0-7.222,5.164,5.372,5.372,0,0,0-.959,1.155,18.338,18.338,0,0,1-3.307,3.75,12.177,12.177,0,0,0-3.5,5.972C-437.475-49.074-438.033-48.272-437.93-47.249Zm-1.59.2a.358.358,0,0,1-.464.288c-.264-.084-.2-.311-.111-.507q.6-1.291,1.194-2.578l.171.076Q-439.126-48.415-439.52-47.054Zm1.667-5.368a.438.438,0,0,1,.02-.1c.019.012.053.024.053.036a.533.533,0,0,1-.024.1C-437.821-52.4-437.853-52.41-437.853-52.422Zm.29-.629a4.049,4.049,0,0,1,.331-1.727,55.188,55.188,0,0,1,2.469-5.332,6.536,6.536,0,0,1,1.2-1.6c1.419-1.468,2.847-2.93,4.311-4.354a3.3,3.3,0,0,1,2.37-1.032,45.546,45.546,0,0,0-6.035,6.534A44.175,44.175,0,0,0-437.563-53.051Zm34.393-25.23a56.531,56.531,0,0,1,9.214-.807c2.891-.131,5.757.115,8.634.186-2.62.114-5.24.264-7.862.328a33.427,33.427,0,0,0-5.93.912c-2.615.538-5.228,1.088-7.842,1.633a6.434,6.434,0,0,0-1.777.582,48.377,48.377,0,0,1-6.4,2.505,17.971,17.971,0,0,0-3.687,2.093,10,10,0,0,1-2.846,1.273,19.526,19.526,0,0,1-2.442.812c-.006.008-.014.014-.021.022l-.023.008c-.01.084-.047.124-.117.1.008-.026.009-.062.027-.073a.317.317,0,0,1,.09-.031c0-.01.007-.012.007-.023l.037-.007a3.205,3.205,0,0,1,1.305-.876c3.664-1.626,6.906-4.076,10.686-5.47a1.767,1.767,0,0,0,.454-.21,13.294,13.294,0,0,1,4.819-2.243C-405.623-77.874-404.389-78.023-403.17-78.282Zm-1.318-1.17a.165.165,0,0,1,.1-.027,1.543,1.543,0,0,1,.193.056.947.947,0,0,1-.218.053C-404.518-79.371-404.547-79.412-404.487-79.451Zm45.637,16.729-.012,0c.262.4-.006.68-.244.966a.222.222,0,0,1-.328.039c-.521-.633-1.462-.976-1.416-2.005l-.007,0h0c-.067.079-.132.078-.178-.018-.013-.028.011-.074.018-.112l.16.13.008-.008s0,.008,0,.012c.379.08.546.435.828.639.342.248.67.583,1.16.362,0-.007-.007-.013-.012-.021l.022.009c-.149-.788-.8-1.215-1.3-1.726a4.95,4.95,0,0,1-1.072-1.369,5.889,5.889,0,0,0-2.61-2.6,13.61,13.61,0,0,1-3.533-2.754c-.129-.151-.327-.262-.3-.555a22.142,22.142,0,0,1,3.748.884,1.685,1.685,0,0,1,1.113,1.093,6.053,6.053,0,0,0,2.386,2.955,2.522,2.522,0,0,1,.993,1.1,3.381,3.381,0,0,0,1.459,1.664c.488.274.438.535.107.862-.275.273-.479.723-.994.449Zm-4.7,2.76a5.041,5.041,0,0,1,1.472.909c.158.138.3.326.141.538-.169.229-.363.47-.695.438a2.593,2.593,0,0,1-1.374-1.685C-363.956-59.988-363.764-60.044-363.553-59.963Zm-.741-1.9c.53.092.85.188.906.636.008,0,.014.006.022.007s.009.011.012.018a.392.392,0,0,1,.472.227h.027c0,.011,0,.024,0,.036l.1.1c-.03-.008-.074-.007-.086-.027a.171.171,0,0,1-.017-.074l-.021-.021c0-.006-.007-.009-.01-.014a.424.424,0,0,1-.472-.227c-.01,0-.019,0-.029,0s0-.018-.005-.028A1.754,1.754,0,0,1-364.294-61.86Zm1.973,1.3c.832-.169,1.078.379,1.242,1.011Zm.695-.815a17.536,17.536,0,0,1-4.551-4.608c-.075-.129-.226-.258-.035-.507a12.844,12.844,0,0,1,5.517,5.141A.7.7,0,0,1-361.626-61.373Zm-4.627,6.412c.06.723-.226.954-.777,1.3-.687-2.4-.02-4.7-.156-7.152,1.654.906,1.654.906,1.28,2.387A10.627,10.627,0,0,0-366.253-54.961Zm-1.888-8.288a2.624,2.624,0,0,1,2.921,2.166C-366.316-61.651-366.982-62.77-368.142-63.249ZM-368-53.78c.3,1.43-.637,2.2-1.554,3.055-.273-3.862.306-7.667.674-11.483l-.012-.007-.014-.018c-.033,0-.07,0-.071-.012-.013-.067.016-.061.071.012l.028,0,0,.023c1.051.57,1,.57.907,1.683A22.865,22.865,0,0,0-368-53.78Zm-2.628,3.516c.454.58.163.907-.235,1.255-.238.207-.385.554-.849.546a12.015,12.015,0,0,1-.336-4.78c.087-1.922.743-3.755.8-5.684.044-1.449.236-2.894.363-4.355,1.112.551,1.108.55.952,1.606-.483,3.26-.718,6.543-.912,9.831A2.291,2.291,0,0,0-370.625-50.264Zm-5,4.824c.09.932-.358,1.364-1.18,1.794a10.984,10.984,0,0,1,.1-2.281c.046-1.837.014-3.677.2-5.509a73.7,73.7,0,0,1,1.186-7.533c.4-1.916.592-3.874.88-5.811a4.688,4.688,0,0,1,.115-.464c1.142.2,1.133.195.929,1.218-.367,1.841-.875,3.655-1.09,5.524a38.941,38.941,0,0,0-.4,4.351c0,2.059-.565,4.044-.636,6.086A20.354,20.354,0,0,0-375.625-45.44Zm-1.975,2.228c.194.466-.485.623-1.069.994.133-3.442.232-6.614.385-9.785a38.491,38.491,0,0,1,1.19-7.028,33.168,33.168,0,0,0,.506-5.863c.018-.313.027-.756-.432-.756-.345,0-.408.364-.438.665-.148,1.454-.356,2.906-.42,4.364a20.841,20.841,0,0,1-.658,3.184,43.13,43.13,0,0,0-.92,7.825c-.034,2.464-.143,4.927-.216,7.391-.033,1.078-.029,1.078-1.259,1.531a10.331,10.331,0,0,1,.032-2.739c.3-2.958.462-5.921.5-8.89a33.143,33.143,0,0,1,.605-3.576c.333-2.778,1.094-5.485,1.419-8.267a9.316,9.316,0,0,0,.146-1.242c-.017-.811.035-1.073,1.06-.8,2.356.631,2.3.428,1.793,2.567-.34,1.424-.291,2.9-.687,4.328a48.574,48.574,0,0,0-1.587,12.771C-377.664-45.439-378.073-44.345-377.6-43.212Zm-4.329,2.964c.065.2.086.438-.208.474s-.346-.225-.365-.408q-.155-1.49-.256-2.985c-.029-.414,0-.834,0-1.251-.04-2.39.522-4.722.69-7.092.221-3.116.58-6.225.891-9.335a22.583,22.583,0,0,1,.9-5.165c.114-.331.11-.794.7-.642.483.125.708.389.62.893-.181,1.026-.343,2.055-.542,3.078-.556,2.861-1.129,5.72-1.69,8.581a6.8,6.8,0,0,0-.181,1.236c-.027,3.593-.348,7.168-.612,10.747A4.856,4.856,0,0,0-381.929-40.247ZM-383.6-40.5c.012.124.065.246.065.369,0,.387.522.69.327,1.02a1.833,1.833,0,0,1-1.231.773,19.851,19.851,0,0,1-2.68,1.992,6.223,6.223,0,0,1-.391-2.721A15.073,15.073,0,0,0-387.8-41.8a16.257,16.257,0,0,1-.064-4.368c.1-1.081.312-2.155.348-3.237a33.209,33.209,0,0,1,1.375-7.734c.769-2.78,1.035-5.666,1.949-8.4.2-.6.267-1.287.967-1.687.036.19.112.33.072.415-.606,1.3-.565,2.778-1.075,4.111a3.868,3.868,0,0,0-.179,1.232,57.57,57.57,0,0,1-.694,6.715,41.673,41.673,0,0,0-.225,4.252c-.114,2.42-.382,4.83-.474,7.253-.056,1.481.368,2.9.382,4.363.006.607.47.584.915.491a9.316,9.316,0,0,0-.263-3.1,12.1,12.1,0,0,1-.078-2.992c.184-2.749.436-5.494.559-8.246.088-1.966.423-3.9.642-5.842a13.916,13.916,0,0,0,.16-1.866c-.045-2.077.662-4.015,1.085-6.005.106-.5.323-.836.956-.666.484.13.613.368.45.808-.9,2.422-.9,4.989-1.27,7.5-.59,4-.783,8.046-1.346,12.052A26.382,26.382,0,0,0-383.6-40.5Zm-5.159-1.023c.377,1.8.108,3.672.5,5.478.077.359-.128.544-.4.688-.625.327-1.251.652-2.011,1.047A21.813,21.813,0,0,1-391-38.494a103.674,103.674,0,0,1,1.062-11.089,49.775,49.775,0,0,1,1.009-5.786c.46-1.687.842-3.4,1.432-5.045.566-1.58.658-3.274,1.228-4.854.2-.554.456-1.074.7-1.606.225-.5.582-.528,1.063-.264a53.52,53.52,0,0,0-2.025,7.978c-.238,1.256-.729,2.471-1.007,3.737a95.422,95.422,0,0,0-1.346,9.781A12.865,12.865,0,0,0-388.762-41.525Zm-3.049,7.074c.054.474.039.794-.413,1.036-.615.331-1.208.7-2.008,1.174a40.607,40.607,0,0,1,.088-5.027c.131-2.127.531-4.223.668-6.352a20.018,20.018,0,0,1,.881-3.772,8.566,8.566,0,0,0,.3-1.6,69.747,69.747,0,0,1,1.806-11.485c.412-1.7.857-3.4,1.307-5.091.492-1.857.594-1.924,2.727-1.583-1.325,2.3-1.507,4.931-2.314,7.381a62.841,62.841,0,0,0-2.442,11.485c-.426,3.233-.685,6.479-.895,9.727A23.394,23.394,0,0,0-391.811-34.451Zm14.45-32.974c-.928-.219-1.883-.35-2.811-.6a23.391,23.391,0,0,0-5.981-.485,48.344,48.344,0,0,0-5.479.413c-4.41.465-8.693,1.6-13.072,2.21-2.018.282-3.993.861-6.01,1.217a11.826,11.826,0,0,0-4.1,1.82c-1.768,1.107-3.427,2.388-5.21,3.469a18.578,18.578,0,0,0-4.5,4.122c-.339.4-.6.908-1.315,1.03a1.8,1.8,0,0,1,.48-1c1.427-1.466,2.615-3.149,4.182-4.492.946-.81,1.795-1.725,2.746-2.542a8.539,8.539,0,0,1,2.916-1.648c3.447-1.143,6.9-2.265,10.338-3.437a35.267,35.267,0,0,1,4.424-.845,55.289,55.289,0,0,1,8.93-1.18c3.081-.11,6.154-.59,9.255-.151a43,43,0,0,1,4.609.413,9.8,9.8,0,0,1,2.073.835c1.372.7,2.73,1.43,4.087,2.159a.765.765,0,0,1,.4.546c-.386.191-.688-.062-.972-.225A17.8,17.8,0,0,0-377.361-67.425Zm-21.918,4.72c-.131-1.087.52-1.912.911-2.821a1.811,1.811,0,0,1,1.6-.455c.366.176.231.5.168.768-.339,1.422-.664,2.849-1.062,4.254-.784,2.773-1.451,5.572-2.036,8.4q-1,4.845-2.143,9.663a27.814,27.814,0,0,0-.611,4.333c-.148,1.96-.483,3.889-.8,5.824-.137.821-.128,1.666-.207,2.5-.064.665-.212,1.325-.232,1.99-.023.809-.437,1.092-1.256,1.091.059-.726.151-1.423.166-2.121a105.317,105.317,0,0,1,1.92-15.791c.244-1.4.317-2.829.634-4.206.395-1.708.7-3.435,1.1-5.139.581-2.432,1.195-4.855,1.778-7.286A2.885,2.885,0,0,0-399.279-62.705Zm-3,30.383c.365-2.308.717-4.613.9-6.944A55.583,55.583,0,0,1-400.1-46.28c.7-3.349,1.421-6.693,2.138-10.038.219-1.019.555-2.009.8-3.024a54.06,54.06,0,0,0,1.454-6.464.569.569,0,0,1,.439-.536,3.5,3.5,0,0,1,1.558-.32c-.389,1.428-.714,2.793-1.135,4.129a70.511,70.511,0,0,0-2.717,10.793c-.344,2.308-.97,4.573-1.441,6.864-.455,2.216-.366,4.5-.751,6.722-.128.739-.209,1.494-.408,2.215a25.643,25.643,0,0,0-.693,6.207c-.029,1.1-.005,1.1-1,1.488a.971.971,0,0,1-.71.088C-402.479-29.528-402.5-30.944-402.28-32.322ZM-407.4-50.041a4.811,4.811,0,0,0-2.242,1.551c-.506.627-1.016.535-1.782.381a8.806,8.806,0,0,1,4.678-3.255C-406.683-50.723-406.712-50.268-407.4-50.041Zm.388.616c-.049,1.744-.384,1.97-1.768,1.187C-408.167-48.605-407.732-49.193-407.015-49.425Zm-.325-2.4a8.939,8.939,0,0,0-4.453,3.077,1.3,1.3,0,0,1-1.658.524,12.893,12.893,0,0,1,6.832-4.87C-406.47-52.36-406.668-52.033-407.34-51.826Zm-.071-1.614a14.706,14.706,0,0,0-5.3,3.237c-.658.578-1.306,1.168-1.966,1.745a1.015,1.015,0,0,1-1.105.2c2.827-3.58,7.132-6.622,9.54-6.785C-406.316-53.776-406.317-53.78-407.411-53.44Zm.538-2.218a6.113,6.113,0,0,0-2.288.981,26.414,26.414,0,0,0-5,3.542q-1.173,1.217-2.33,2.451a1.529,1.529,0,0,1-1.864.436,9.573,9.573,0,0,1,1.911-1.656c1.252-.994,2.294-2.194,3.46-3.27a11.512,11.512,0,0,1,4.4-2.777,9.558,9.558,0,0,0,2.641-1.147C-405.861-56.128-406.161-55.776-406.873-55.658Zm-1.1-1.217a12.492,12.492,0,0,0-4.418,2.276,19.49,19.49,0,0,0-2.186,2.051c-1.456,1.689-3.478,2.731-4.928,4.418-.239.279-.59.271-1.085.128a29.863,29.863,0,0,1,2.434-2.324,18.677,18.677,0,0,0,2.684-2.62,15.083,15.083,0,0,1,6.283-4.165c.938-.346,1.854-.751,2.784-1.119.221-.087.439-.27.7-.1A4.31,4.31,0,0,1-407.969-56.874Zm2.036-2.414c-2.151,1-4.316,1.981-6.431,3.055a10.926,10.926,0,0,0-3.221,2.542,68.736,68.736,0,0,1-5.138,4.754,4.038,4.038,0,0,0-.879.881c-.232.406-.587.392-1.108.307a45.071,45.071,0,0,1,6.634-7.057,50.131,50.131,0,0,1,10.82-5.884C-405.143-59.709-405.2-59.629-405.933-59.288ZM-423.073-48.41c-.541.765-.543.764-1.882.688,1.728-2.155,2.761-4.68,5.228-5.982a1.711,1.711,0,0,0,.5-.377c1.717-2.007,4.212-2.814,6.374-4.131a6.108,6.108,0,0,1,.912-.409c.065-.026.158.02.269.037a20.2,20.2,0,0,1-2.888,1.993,25.628,25.628,0,0,0-7.872,7.25C-422.658-49.038-422.855-48.717-423.073-48.41Zm11.826-10.438.091.009-.053.066Zm5.963-2.718a24.289,24.289,0,0,0-4.148,1.966,1.891,1.891,0,0,1-1.113.389l-.021.016a.06.06,0,0,1-.037.013l-.081.145c-.138-.171,0-.134.081-.145l.018-.033.04,0c2.557-1.973,3.868-2.972,5.83-2.853C-404.665-61.63-405.062-61.634-405.284-61.566Zm-4.754,1.089a21.584,21.584,0,0,1-2.844,1.573,30.266,30.266,0,0,0-4.611,2.518,35.135,35.135,0,0,0-5.257,4.407c-.961,1.045-1.57,2.357-2.424,3.494a2.092,2.092,0,0,1-2.221,1.013c-.169-.341.13-.553.29-.728,1.155-1.257,1.649-3.035,3.114-4.034a21.647,21.647,0,0,0,4.07-3.848,11.159,11.159,0,0,1,4.349-2.652,34.122,34.122,0,0,0,7.017-3.771,2.575,2.575,0,0,1,.775-.4c1.2-.346,2.4-.662,3.693-1.012.1.617-.026,1.078-.531,1.08C-406.779-62.83-408.391-61.62-410.038-60.477Zm-17.454,11.216c-.128.251-.18.555-.537.707a.691.691,0,0,1,.316-.912,1.486,1.486,0,0,0,.19-.461,3.475,3.475,0,0,1,1.931-2.887,19.063,19.063,0,0,0,3.632-3.608,8.387,8.387,0,0,1,1.513-1.3c2.026-1.327,4-2.736,6.055-4.021a10.771,10.771,0,0,1,5.327-2.022,3.816,3.816,0,0,1,.5.027c.022,0,.04.05.087.113a10.623,10.623,0,0,1-2.616,1.835c-2.253,1.081-4.442,2.288-6.748,3.269a8.278,8.278,0,0,0-3.147,2.426,12.714,12.714,0,0,1-2.792,2.67,6.508,6.508,0,0,0-2.636,2.951A3.563,3.563,0,0,1-427.492-49.261Zm21.278-22.429a8.832,8.832,0,0,0-2.847.94c-2.045.973-4.286,1.338-6.544,2.344,3.431-3.007,12.668-6.481,20.3-5.545a4.415,4.415,0,0,1-2.31.609C-400.513-72.932-403.3-71.987-406.213-71.69Zm3.188.307a20.012,20.012,0,0,1-4.056.737A13.1,13.1,0,0,1-403.026-71.383Zm-4.7,1.007-.106.027,0-.055Zm-5.57,2.015a.3.3,0,0,1-.094.021.285.285,0,0,1-.082-.039.287.287,0,0,1,.092-.02A.264.264,0,0,1-413.3-68.362Zm13.226-3.856c2.494-.246,4.894-1.1,7.405-1.169,1.582-.047,3.17.022,4.753.094a28.9,28.9,0,0,0,3.117-.232,24.075,24.075,0,0,1,6.547.881c.491.1.976.187,1.474.246a6.109,6.109,0,0,1,3.321,1.127c.017,0,.033.006.049.007l.012.024.306.071c-.163.179-.239.069-.306-.071l-.028-.006c-.011-.009-.022-.016-.033-.025a9.107,9.107,0,0,1-2.224-.636,8.99,8.99,0,0,0-2.682-.44c-2.5-.058-5-.221-7.512-.212a21.645,21.645,0,0,0-4.938.711,19.374,19.374,0,0,1-5.461.48c-1.748-.085-3.5-.018-5.276-.132A2.228,2.228,0,0,1-400.074-72.218Zm5.312-1.849c1.569-.426,3.168-.651,4.764-.921,4.259-.721,8.408-.054,12.554.8,1.6.328,3.183.667,4.754,1.122a9.875,9.875,0,0,1,4.408,2.53A19.71,19.71,0,0,0-364-67.29a4.263,4.263,0,0,1,1.339,1.12c.167.225.4.456.184.794-.593-.043-.9-.556-1.341-.839-2.779-1.776-5.524-3.6-8.314-5.361a10.084,10.084,0,0,0-4.069-1.544,48.875,48.875,0,0,1-4.915-.967,13.408,13.408,0,0,0-4.5-.138,30.593,30.593,0,0,1-4.38.154C-391.584-74.133-393.171-74.064-394.763-74.066Zm12.983,2.656c.751.047,1.5.132,2.253.118a15.352,15.352,0,0,1,8.778,2.9c.56.364,1.1.759,1.659,1.126a6.752,6.752,0,0,1,2.831,3.288,6.229,6.229,0,0,1-2.991-1.514c-1.852-1.557-4.106-2.358-6.143-3.558a10.237,10.237,0,0,0-5.282-1.256c-1.082-.008-2.163-.168-3.245-.225-2.674-.144-5.34.114-8.166.225A25.766,25.766,0,0,1-381.779-71.411Zm11.271,6.323-.068-.009.04-.048Zm-.439-.267c-.029.02-.059.057-.086.056s-.053-.043-.079-.067c.029-.02.059-.057.086-.055S-370.973-65.378-370.947-65.354Zm1.027.914a1.422,1.422,0,0,1,1.256.707h.032c0,.01,0,.018,0,.027l.2.078c-.157.149-.188.051-.2-.078l-.023-.009-.013-.019A1.272,1.272,0,0,1-369.92-64.44Zm4.868,5.179A1.544,1.544,0,0,1-364.434-58c-.116,2.045-.106,2.045-.915,2.679A13.458,13.458,0,0,1-365.052-59.261Zm2.759-5.814c.026-.04.052-.082.079-.122.025.028.07.057.068.084s-.05.05-.08.076Zm2.408,4.385a.214.214,0,0,1-.235.214c-.383-.033-.476-.323-.581-.767C-360.264-61.109-359.923-61.084-359.885-60.69Zm-9.276-13.157a13.913,13.913,0,0,0-5.922-3.124,44.791,44.791,0,0,1-5.277-1.537,6.593,6.593,0,0,0-1.21-.214,20.543,20.543,0,0,1,12.825,3.889,24.289,24.289,0,0,1,3.693,2.532A6.756,6.756,0,0,1-369.161-73.846Zm-52.187,8.84a.447.447,0,0,1-.389.232l-.139-.129a2.126,2.126,0,0,1,.371-.26C-421.429-65.2-421.237-65.2-421.348-65.006Zm-.826.317a10.175,10.175,0,0,1-4.92,3.315A32.573,32.573,0,0,1-422.174-64.689Zm-5.789,4.157c-.234-.13-.033-.132.055-.166a.137.137,0,0,0-.01-.024l.028.005c.029-.07.046-.157.1-.2.1-.078.215-.33.353-.11.1.166-.091.277-.249.322a.482.482,0,0,1-.2-.017s0,.01-.005.014l-.013,0C-427.862-60.611-427.907-60.5-427.962-60.533Zm-6.053,6.437a19.44,19.44,0,0,1,1.688-1.665,34.683,34.683,0,0,0,2.662-2.944c.008-.16.065-.271.252-.249,0-.174.039-.3.246-.239,0-.005,0-.01,0-.015l.009-.006c-.1-.248,0-.395.239-.476,0-.009,0-.017,0-.026l.019,0c-.009-.1.073-.2.1-.173.144.157.051.191-.1.173a.1.1,0,0,0,0,.018l-.015.007a.369.369,0,0,1-.239.476c0,.009,0,.015.007.024s-.011,0-.019,0a.237.237,0,0,1-.241.244c-.005.159-.052.278-.246.255-.137,1.227-1.062,2.034-1.636,3.025a9.068,9.068,0,0,0-.687,1.179c-.5,1.278-1.6,2.259-1.882,3.638-.267,1.3-1.226,2.378-1.169,3.836H-436.8C-436.3-49.544-435.732-52.035-434.015-54.1Zm2.137,1.28a36.9,36.9,0,0,0,2.43-4.35,9.672,9.672,0,0,1,4.824-4.5,5.476,5.476,0,0,0,1.324-.923,52.728,52.728,0,0,1,5.33-4.124c1.165-.825,2.654-.919,3.907-1.586l.136.234a38.258,38.258,0,0,1-3.978,2.77c-2,1.064-3.841,2.351-5.77,3.506a17.549,17.549,0,0,0-5.307,5.381,9.644,9.644,0,0,0-1.49,3.938q-.419,2.452-.878,4.907c-.075.4-.3.431-.616.429-.706-.006-1.412,0-2.433,0C-433.257-49.084-433.017-51.1-431.878-52.815Zm2.187,2.233a2.428,2.428,0,0,0,.268-.946c.074-2.68,1.5-4.695,3.172-6.624,2.072-2.387,4.882-3.724,7.441-5.422a.772.772,0,0,1,.683-.143c0-.005.006-.009.008-.014h.023c.058-.283.273-.243.475-.229,0-.007.009-.01.013-.018s.029,0,.044,0a24.93,24.93,0,0,1,7.45-4.616,39.821,39.821,0,0,1,4.626-1.1,22.188,22.188,0,0,1,7.581-.615c1.282.126,2.587.022,3.893.208-.515.079-1.026.181-1.543.231-2.915.283-5.735,1.125-8.643,1.453a22.572,22.572,0,0,0-4.294,1.352c-2.346.755-4.667,1.59-7.023,2.308-.706.214-1.282.748-2.048.776l-.029.024-.028,0a.459.459,0,0,1-.475.229c0,.007,0,.012-.006.02a.228.228,0,0,0-.026-.005,2.442,2.442,0,0,1-.812.905,36.219,36.219,0,0,0-6.56,6.481,18.512,18.512,0,0,0-4.276,7.536,5.765,5.765,0,0,1-.555,1.384A9.085,9.085,0,0,1-429.692-50.583Zm.579,3.135c-.206.141-.316-.161-.147-.455a2.29,2.29,0,0,1,.232-.285C-428.918-47.906-428.83-47.643-429.113-47.447Zm3.24.572c2.971-.1,5.915-.554,8.882-.649a44.346,44.346,0,0,1,9.115.446c.339.059.581.081.507.486-.078.424-.415.374-.69.3-4.158-1.1-8.376-.644-12.581-.491-3.133.113-6.261.346-9.373.292A21.431,21.431,0,0,1-425.873-46.875ZM-407.321-35.8a25.252,25.252,0,0,1,.454-3.1c.443-2.73.33-5.508.769-8.228.684-4.242,1.028-8.539,2.065-12.722.384-1.547,1.059-2.991,1.564-4.495a1.219,1.219,0,0,1,1.18-.943,7.523,7.523,0,0,1,1.908-.175c-.836,2.021-.785,4.234-1.506,6.25-1.03,2.882-1.364,5.924-2.156,8.862-.574,2.127-.824,4.342-1.188,6.523-.4,2.387-.741,4.784-1.149,7.169a27.5,27.5,0,0,0-.362,3.732c-.064,1.923-.25,3.836-.313,5.756-.012.369-.08.656-.437.813a2.876,2.876,0,0,1-1.23.486,3.774,3.774,0,0,1-.111-1.055A82.586,82.586,0,0,0-407.321-35.8Zm-.326-7.11c-.1.53-.5.323-.786.191a13.224,13.224,0,0,0-4.387-.894c-1.363-.132-2.7-.491-4.069-.606-2.206-.185-4.417-.157-6.648-.268,2.221-.191,4.455-.46,6.707-.457a10.352,10.352,0,0,1,2.725.3,13.253,13.253,0,0,0,3.363.252,11.377,11.377,0,0,1,2.7.485C-407.414-43.753-407.576-43.285-407.647-42.913Zm9.783,13.891a.229.229,0,0,1,.053-.023l.033-.037.029,0a.92.92,0,0,1,.714-.474c0-.01,0-.018.006-.028l.03,0a.762.762,0,0,1,.66-.4.54.54,0,0,1-.66.4c0,.007-.008.011-.012.019s-.016,0-.024,0c-.062.42-.38.459-.714.474a.206.206,0,0,0-.012.018c-.017.007-.032.015-.049.021l-.078.088C-397.881-28.98-397.88-29.011-397.864-29.023Zm2.8-1.518.061-.035c.015,0,.028,0,.043,0a29.53,29.53,0,0,1,4.11-2.5,114.582,114.582,0,0,0,16.269-10.96,1.078,1.078,0,0,1,.647-.358c.31.25.038.453-.094.61-1.824,2.176-3.622,4.378-6.35,5.527a5.852,5.852,0,0,0-1.808,1.332,8.6,8.6,0,0,1-2.619,1.67,48.107,48.107,0,0,0-6.673,3.113,18.784,18.784,0,0,1-2.46,1.226,2.66,2.66,0,0,1-1.022.336l-.028.021a.1.1,0,0,1-.075.019l-.222.129C-395.287-30.609-395.16-30.545-395.062-30.54Zm20.711-15.2c-.283-1.672.838-15.371,1.856-18.66.607-.017.942.232.875.884-.14,1.369-.319,2.735-.421,4.107-.2,2.744-1.116,5.4-.956,8.191a10.679,10.679,0,0,0,.228,2.488,1.9,1.9,0,0,1-.725,2.3C-373.781-46.218-373.967-45.866-374.351-45.739Zm16.243-23.139a7.466,7.466,0,0,0,2.646,1.555c.453.121.414.545-.021.786-.144.08-.347.091-.447.2-.5.547-.8.19-1.062-.226-.443-.693-.862-1.4-1.291-2.1Zm-.367-.287.061.074-.066.07c-.02-.025-.057-.051-.056-.074S-358.5-69.143-358.476-69.166Zm.738,3.139a5.237,5.237,0,0,0,.723.847.3.3,0,0,1-.01.441c-.158.144-.29.067-.429-.044a2.548,2.548,0,0,1-.881-1.033,4.231,4.231,0,0,0-1.784-2.018,3.852,3.852,0,0,1-1.654-2.518A12.96,12.96,0,0,1-357.737-66.026Zm-26.724-16.662a90.549,90.549,0,0,1-9.533.418A30.369,30.369,0,0,1-384.461-82.688Zm-5.511,1.287a20.42,20.42,0,0,0,3-.2,15.232,15.232,0,0,1,6.338.4,40.269,40.269,0,0,0,5.429.9,12.956,12.956,0,0,1,5.094,1.581,14.5,14.5,0,0,0,2.866,1.239,19.571,19.571,0,0,1,4.121,2.348,1.58,1.58,0,0,1,.636.754,1.846,1.846,0,0,0,.716.853c.845.571,1.033,1.534,1.51,2.329-.319.252-.431,0-.579-.1-3.24-2.059-6.408-4.243-9.739-6.141a18.774,18.774,0,0,0-7.832-2.435c-4.129-.338-8.267-.471-12.4-.579-3.083-.08-6.177.211-9.264.375a14.842,14.842,0,0,0-1.97.365,4.758,4.758,0,0,1-1.6.129.747.747,0,0,1,.648-.376,66.8,66.8,0,0,1,6.64-1.271C-394.24-81.4-392.1-81.424-389.972-81.4Zm-17.134.536a38.052,38.052,0,0,1,10.529-1.246c-2.029.374-4.015.839-6,1.289-.65.148-1.306.29-1.937.5q-5.92,1.992-11.831,4.012c-.032.01-.078-.02-.117-.031C-415.458-77.6-409.922-80.2-407.106-80.866Zm-10.084,4.884a.2.2,0,0,1,.036-.013l.039-.037c.006-.012.021-.018.039-.02l.082-.132c.11.156-.012.122-.082.132l-.023.037-.055.02-.068.065C-417.211-75.948-417.205-75.973-417.19-75.982ZM-442.753-47.32a58.065,58.065,0,0,1,4.405-10.234A36.657,36.657,0,0,1-434-64.421c1.822-2.02,3.743-3.943,5.731-5.8a10.168,10.168,0,0,1,4.016-2.267,23.241,23.241,0,0,0,5.483-2.62,2.217,2.217,0,0,1,.889-.442c.056-.052.148-.157.163-.147.177.118.037.19-.052.266-.059.564-.537.688-.935.908q-4.129,2.3-8.251,4.609a.642.642,0,0,0-.4.519c.258.181.512.019.757-.069a18.253,18.253,0,0,0,3.308-1.777,4.307,4.307,0,0,1,1.188-.684c1.617-.336,2.773-1.528,4.219-2.17a1.092,1.092,0,0,0,.491-.376,3.892,3.892,0,0,1,2.612-1.573,14.684,14.684,0,0,1,3.254-.951,1.255,1.255,0,0,1-.885.686,52.209,52.209,0,0,0-5.086,2.433c-1.2.575-2.2,1.51-3.436,2.054a36.046,36.046,0,0,0-5.15,2.839,6.677,6.677,0,0,1-1.481.673,8.65,8.65,0,0,0-4.141,3.121,7.98,7.98,0,0,1-1.23,1.244,11.3,11.3,0,0,0-3.161,3.993c-.484,1.105-1.145,2.118-1.584,3.261-1.166,3.037-1.967,6.211-3.494,9.113-.489.931-.393.981-1.639,1.059C-443.059-46.8-442.838-47.063-442.753-47.32Zm0,1.844c.909-.128,1.819-.262,2.734-.33,2.472-.181,4.947-.327,7.385-.485a32.912,32.912,0,0,1-4.86.816c-1.732.262-3.486.389-5.23.565-.222.022-.57.2-.633-.125C-443.438-45.443-443.019-45.439-442.755-45.476Zm.985,1.223c3.426-.223,6.795-.86,10.191-1.3.867-.112,1.753-.066,2.629-.114,3.963-.216,7.923-.513,11.89-.633,2.46-.074,4.929.1,7.393.2a8.989,8.989,0,0,1,1.342.286c.839.166.84.161.583,1.216a17.737,17.737,0,0,0-5.061-.645c-.91-.063-1.806-.38-2.716-.416a65.04,65.04,0,0,0-9.129.423c-1.2.122-2.414.28-3.622.288-4.609.036-9.166.7-13.748,1.057-.533.042-1.039.339-1.669.155A2.773,2.773,0,0,1-441.77-44.253Zm2.616,1.151a13.069,13.069,0,0,1-4.954.852C-443.333-42.877-441.435-43.2-439.154-43.1Zm-5.018,1.884a3.174,3.174,0,0,1,.723-.19c2.6-.424,5.191-.871,7.8-1.212,3.734-.487,7.5-.584,11.24-.9a38.507,38.507,0,0,1,10.738.578,14.994,14.994,0,0,0,2.243.229,17.177,17.177,0,0,1,3.164.754c.309.073.557.2.512.565-.037.508-.3.515-.69.378a15.24,15.24,0,0,0-3.764-.921,66.334,66.334,0,0,0-13.018-.1c-2.032.234-4.081.328-6.125.45-3.13.188-6.258.386-9.359.878a25.184,25.184,0,0,0-3.242.311c-.19.055-.438.076-.508-.193A.5.5,0,0,1-444.172-41.218Zm-.247,1.711c.617-.1,1.236-.213,1.859-.28,4.737-.5,9.48-.952,14.235-1.194,2.756-.14,5.475-.748,8.252-.591,2.828.25,5.688,0,8.5.472,1.024.173,2.016.528,3.032.759.6.137.579.545.456.958-.151.5-.565.282-.825.153-1.2-.6-2.526-.481-3.783-.725a76.253,76.253,0,0,0-8.97-.8,43.745,43.745,0,0,0-6.129.231c-2.624.17-5.23.539-7.857.707-2.2.141-4.392.543-6.589.808-.7.085-1.416.106-2.124.147a.281.281,0,0,1-.33-.282A.328.328,0,0,1-444.419-39.506Zm.025,1.646c2.116-.253,4.24-.443,6.346-.757,2.809-.419,5.648-.522,8.462-.911a34.523,34.523,0,0,1,8.119-.422c1.867.182,3.777-.012,5.627.324,2.329.423,4.745.4,6.983,1.316.3.125.664.15.591.641s-.24.77-.808.683a14.98,14.98,0,0,1-2.807-.6c-1.987-.71-4.111-.674-6.158-1.055a30.927,30.927,0,0,0-8.118-.118,44.477,44.477,0,0,1-6.018.066,24.66,24.66,0,0,0-5.6.479,44.4,44.4,0,0,1-6.082.792,1.421,1.421,0,0,1-1-.19C-444.6-37.754-444.5-37.848-444.394-37.861Zm-.107,1.453a3.38,3.38,0,0,1,.741-.123c2.87.044,5.623-.785,8.441-1.126a35.044,35.044,0,0,1,4.128-.171,58.607,58.607,0,0,0,6.264-.239,19.706,19.706,0,0,1,6.243.239,22.993,22.993,0,0,0,3.6.485,10.5,10.5,0,0,1,1.967.366,35.564,35.564,0,0,0,3.644.88c1.028.143,1.032.168.955,1.158a3.01,3.01,0,0,1-.137.511c-2-.4-3.98-.7-5.9-1.276a17.09,17.09,0,0,0-3.456-.587c-1.831-.158-3.672-.214-5.509-.291a23.1,23.1,0,0,1-3.623-.267,22.062,22.062,0,0,0-5.5.089c-.459.023-.918.113-1.375.1a77.445,77.445,0,0,0-8.254.543,11.972,11.972,0,0,0-2.084.433c-.2.053-.438.085-.511-.184C-444.948-36.164-444.789-36.346-444.5-36.407Zm.161,1.767a18.2,18.2,0,0,1,2.206-.452c2.915-.193,5.82-.583,8.749-.491,1.262.039,2.49-.26,3.746-.269,1.842-.012,3.654.335,5.492.391,1.961.058,3.919.235,5.879.344a13.539,13.539,0,0,1,3.208.5c1.564.476,3.171.716,4.765,1.035.122.025.25.024.373.047,1.434.263,1.433.264,1.215,2-.942-.67-1.942-.532-2.874-.733a34.457,34.457,0,0,1-5.105-1.592,3.314,3.314,0,0,0-1.091-.233c-4.424-.167-8.849-.347-13.275-.5a58.412,58.412,0,0,0-6.624.36c-2.164.168-4.321.382-6.472.662-.3.039-.7.192-.794-.324C-445.025-34.363-444.793-34.554-444.341-34.641Zm-.425,3.118a.614.614,0,0,1,.463-1.044c1.453-.164,2.9-.35,4.361-.468,2.414-.2,4.831-.395,7.25-.5,1.29-.054,2.589.1,3.884.146,3.469.123,6.939.233,10.408.365a7.626,7.626,0,0,1,3.465,1.078,4.9,4.9,0,0,1-2.071-.124c-5.007-.384-10.021-.513-15.041-.561a42.067,42.067,0,0,0-8.24.526c-1.231.231-2.455.495-3.686.728C-444.242-31.322-444.546-31.209-444.766-31.523Zm.3,1.511c-.056-.5.335-.5.659-.557,3.657-.648,7.293-1.5,10.961-1.151,3.434-.034,6.775.041,10.11.209a44.712,44.712,0,0,1,7.348.681c1.5.329,2.972.823,4.46,1.228.564.154,1.141.259,1.708.4.326.081.516.282.409.641s-.389.247-.622.218a28.887,28.887,0,0,1-5.169-.95c-1.352-.423-2.731-.754-4.086-1.174a12.248,12.248,0,0,0-2.6-.349,81.937,81.937,0,0,0-12.139-.36c-2.221.144-4.383.606-6.568.946-1.238.192-2.473.4-3.712.593C-444.036-29.585-444.413-29.509-444.47-30.012Zm.446,2.068c-.2-.721-.153-.893.6-1.018,1.854-.31,3.733-.492,5.567-.887a51.062,51.062,0,0,1,7.486-.614,31.678,31.678,0,0,1,3.348.143,70.516,70.516,0,0,1,7.529.536,2.1,2.1,0,0,1,.488.105,48.631,48.631,0,0,0,9.044,1.94c.367.041,1.049-.029.948.518-.118.634-.692.188-1.039.1A55.371,55.371,0,0,0-422.8-28.84c-2.509-.017-5.023-.124-7.527-.018a79.156,79.156,0,0,0-12.7,1.263C-443.4-27.517-443.847-27.291-444.024-27.944Zm1.18,1.144a76.955,76.955,0,0,1,9.2-1c2.374,0,4.744-.275,7.126-.209a69.991,69.991,0,0,1,11.726.823c1.417.28,2.81.7,4.244.933-.689.339-1.326-.032-1.983-.067-5.508-.291-11.026-.161-16.536-.325a76.515,76.515,0,0,0-9.125.319c-1.412.128-2.813.374-4.224.523-.432.046-.749.355-1.235.409C-443.822-26.612-443.831-26.681-442.844-26.8Zm-.779,2.02a102.424,102.424,0,0,1,16.59-.847c5.55.22,11.119-.058,16.88.655a12.273,12.273,0,0,1-2.431,1.056.8.8,0,0,1-.484.073c-1.961-.854-4.028-.445-6.044-.47-2.968-.037-5.936-.054-8.905-.131a77.431,77.431,0,0,0-11.758.28,8.3,8.3,0,0,1-1.126.076,3.826,3.826,0,0,0-2.455.641A3.577,3.577,0,0,1-443.622-24.78Zm25.748,2.518c.234.849.546,1.659.859,2.477.553,1.446,1.231,2.835,1.908,4.223a8.342,8.342,0,0,0,1.467,1.863,4.456,4.456,0,0,1,.835.922c.1.041.228.1.129.216s-.19-.005-.26-.088a7.976,7.976,0,0,1-3.7-3.535c-1.089-2.258-1.888-4.624-2.933-6.895C-418.5-23.466-418.174-23.351-417.875-22.261Zm3.233,20.16a2.953,2.953,0,0,1-1.32-1.3,37.421,37.421,0,0,0-4.772-6.362,17.737,17.737,0,0,1-3.784-5.348c-.51-1.256-1.1-2.5-1.591-3.776-.015-.039-.036-.075-.048-.115-.457-1.477-.455-3.127-1.785-4.294.909-.123,1.509-.161,1.955.752a30.421,30.421,0,0,1,2.449,5.574,13.722,13.722,0,0,0,1.8,3.832,9.5,9.5,0,0,0,2.22,2.163,13.655,13.655,0,0,1,4.4,5.42,1.9,1.9,0,0,0,.266.422,8.385,8.385,0,0,1,1.859,4.038A7.705,7.705,0,0,0-414.642-2.1Zm2.386,4.092a1.533,1.533,0,0,1-.888-.553c-1.346-1.105-2.847-2-4.2-3.086a19.972,19.972,0,0,0-2.774-2.079,1.554,1.554,0,0,1-.671-.879,8.527,8.527,0,0,1-.664-2.011c-.13-1.428-1.027-2.423-1.742-3.528a6.634,6.634,0,0,1-.929-1.581l-.026-.005c0-.015-.007-.03-.008-.046l-.077-.09c.023.011.058.016.067.034a.171.171,0,0,1,.01.057l.026.03c0,.007.006.013.008.021.564.064.832.569,1.072.928.98,1.469,2.451,2.487,3.469,3.912a34.784,34.784,0,0,1,2.749,3.828,4.468,4.468,0,0,0,2.077,1.917A5.046,5.046,0,0,1-412.256,1.991Zm-12.4-14.906-.217.218a8.482,8.482,0,0,0-2.4-2.5,1.414,1.414,0,0,1-.326-.378c-.864-1.565-1.73-3.131-2.574-4.708a6.882,6.882,0,0,1-.413-2.2c-.052-.3-.146-.76.3-.833s1.066-.313,1.342.28a14.285,14.285,0,0,1,1.464,3.112,13.588,13.588,0,0,0,1.839,4.881A13.857,13.857,0,0,1-424.659-12.914ZM-442.445-19.4a15.047,15.047,0,0,1-.82-3.208.315.315,0,0,1,.33-.407c.614-.04,1.228-.1,2.047-.169C-441.518-21.9-441.734-20.659-442.445-19.4Zm.412,1.421a18.817,18.817,0,0,0,1.529-3.679,3.848,3.848,0,0,1,.883-1.487.409.409,0,0,1,.567-.027c.157.136.075.311.007.454-.943,1.982-1.558,4.12-2.874,6.07A1.172,1.172,0,0,1-442.032-17.978Zm.6,2.988c.988-2.65,2.335-5.154,3.185-7.857.209-.664.661-.62,1.3-.52-1.479,3.464-1.9,7.283-4.312,10.41A2.212,2.212,0,0,1-441.429-14.991Zm.849,4.484a1.489,1.489,0,0,1,.084-2.058,15.225,15.225,0,0,0,2.524-5.26q.72-2.258,1.443-4.517a6.27,6.27,0,0,1,.3-.819.6.6,0,0,1,.851-.277c.307.143.106.429.022.651-.934,2.451-1.881,4.9-2.8,7.353a28.257,28.257,0,0,1-2.006,4.566C-440.24-10.729-440.274-10.552-440.58-10.507Zm.779,1.729a.538.538,0,0,1-.159-.321c-.026-.221.129-.382.231-.563,1.84-3.247,2.906-6.82,4.29-10.259.426-1.06.8-2.14,1.2-3.21a5.033,5.033,0,0,1,0,3.982c-1.184,2.432-1.97,5.042-3.208,7.457-.539,1.048-1.5,1.793-2.036,2.844A.212.212,0,0,1-439.8-8.778Zm1.069.8A5.749,5.749,0,0,1-438.21-9.1c1.663-1.9,2.465-4.224,3.352-6.517.5-1.3,1.079-2.576,1.622-3.862.486.834.581,1.672,1.014,2.4a.881.881,0,0,1-.024.842c-.593,1.241-1.119,2.517-1.765,3.729-1.252,2.351-2.834,4.5-4.247,6.861A1.875,1.875,0,0,1-438.732-7.979Zm1.788,4.781c-.956-.884-1.059-1.178-.426-2.162,1.127-1.752,2.1-3.6,3.272-5.321a20.636,20.636,0,0,0,1.879-3.806,2.163,2.163,0,0,1,.677-1.151,1.386,1.386,0,0,1,.157,2.16,5.937,5.937,0,0,0-.741,1.575,6.648,6.648,0,0,1-.772,1.565A38.882,38.882,0,0,0-436.51-3.78C-436.608-3.56-436.681-3.3-436.944-3.2Zm1.381,1.454a1.469,1.469,0,0,1-.272.23c-.459-.214-.483-.54-.313-.941a43.768,43.768,0,0,1,3.084-6.161,15.121,15.121,0,0,0,1.722-3.466,14.3,14.3,0,0,1,.832-1.757c.51.293.612.687.859.963a.5.5,0,0,1,.024.673C-431.688-8.763-433.146-4.982-435.562-1.744Zm1.978,1.722c-.4.022-.6-.227-.86-.347-.507-.237-.539-.578-.223-1,2.2-2.919,3.543-6.326,5.339-9.475.082-.144.183-.275.265-.4.327-.024.463.211.638.376.739.7.719.692.268,1.546a24.923,24.923,0,0,1-3.1,4.825,9.915,9.915,0,0,0-1.767,3.15C-433.187-.883-433.4-.442-433.584-.022Zm1.1,1c-.317-.167-.28-.467-.194-.767a14.014,14.014,0,0,1,2.268-4.425,21.283,21.283,0,0,0,2.289-3.85,3.886,3.886,0,0,1,.9-1.4.766.766,0,0,1,.242,1.233c-.446.653-.855,1.335-1.34,1.957a10.635,10.635,0,0,0-1.424,2.622A31.957,31.957,0,0,1-431.847.59C-431.986.826-432.094,1.18-432.479.976Zm1.4,1.213c-.352-.245-.347-.519-.13-.852a16.911,16.911,0,0,0,2.317-4.689c.516-1.875,1.9-3.188,2.706-4.971a1.318,1.318,0,0,1,.6,1.647,31.667,31.667,0,0,1-.86,3.246,18.838,18.838,0,0,1-3.675,5.609C-430.465,2.591-430.75,2.418-431.079,2.189Zm7.174-6.018c.3-.014.422.226.468.487.065.372-.2.39-.459.406-.5.03-1,.063-1.6.1-.127-.431,0-.742.35-.843A5.408,5.408,0,0,1-423.9-3.829Zm-.991-1.316c.019-.248.034-.5.057-.834a1.389,1.389,0,0,1,.714.66c.091.141.142.35.018.463a.765.765,0,0,1-.464.124C-424.839-4.723-424.913-4.906-424.895-5.145Zm-1.74,4.711c.058-1.165.826-1.276,1.631-1.412,1.547-.262,2.947-.2,3.919,1.608C-423.015-.518-424.811-.336-426.635-.434Zm5.741.811c.525-.245.7.189,1.122.666-2.845-.018-5.45.038-8.131.263.182-.754.569-.763,1.017-.759,1.5.013,3.008,0,4.511-.026A3.414,3.414,0,0,0-420.894.378Zm-7.713,1.961q3.372-.114,6.744-.255a12.5,12.5,0,0,0,2.853-.213c.744-.2,1.127.5,1.589,1.018-3.966.817-7.9-.086-11.873.124C-429.311,2.457-429.029,2.353-428.606,2.338Zm.337,1.568c1.466.093,2.865.13,4.251.281a17.714,17.714,0,0,0,6.841-.456,2.559,2.559,0,0,1,2.454.706,22.787,22.787,0,0,1-4.175.606,41.2,41.2,0,0,1-6.258.269C-426.949,5.138-426.958,5.29-428.269,3.907Zm5.263,3.434c-1.077.4-1.684-.264-2.277-1.03a55.282,55.282,0,0,0,8.857-.683,12.432,12.432,0,0,0,1.833-.38.818.818,0,0,1,.911.165c.254.26.74.415.627.847-.1.361-.55.288-.869.358a44.776,44.776,0,0,1-8.459.709A2.061,2.061,0,0,0-423.006,7.341Zm2.165,1.851a1.976,1.976,0,0,1-1.483-.827c1.066-.064,2.1-.182,3.134-.188a30.292,30.292,0,0,0,6.075-.747,2.3,2.3,0,0,1,.615-.087c.442.033.447.454.556.742.128.34-.2.413-.422.47a6.993,6.993,0,0,1-1.349.27C-416.088,8.967-418.465,9.081-420.841,9.192Zm1.327.955c1.6.034,3.087-.094,4.576-.177a8.755,8.755,0,0,0,3.173-.585c.183-.082.381-.227.585-.122a.755.755,0,0,1,.327.344c.086.206-.1.276-.258.333a12.594,12.594,0,0,1-2.565.515,32.757,32.757,0,0,1-4.471.438A1.187,1.187,0,0,1-419.514,10.147Zm1.887,1.836c1.608-.343,3.032-.312,4.421-.591.734-.147,1.463-.3,2.18-.51,1.236-.365,1.236-.365,2.391.653a38.635,38.635,0,0,1-7.1,1.355C-416.479,12.943-416.956,12.548-417.627,11.983Zm6.207,2.626a4.692,4.692,0,0,1-3.022-.9c2.359-.414,4.594-.962,6.819-1.549.774-.2,1.217.345,2.056.691A24.993,24.993,0,0,1-411.42,14.609Zm2.266.552c1.539-.568,3.043-1.123,4.547-1.676.651-.239,1.151.237,1.732.827-1.267.313-2.27.938-3.376,1.247C-407.219,15.828-408.176,15.347-409.155,15.161Zm4.639.657c.91-.439,1.707-.512,2.4-.887.511-.278,1.656.432,2.048,1.14C-401.483,16.119-402.873,15.926-404.515,15.818Zm5.666-.553a40.681,40.681,0,0,0-6.488-3.455,25.748,25.748,0,0,1-2.96-1.353,6.7,6.7,0,0,1-2.952-3.144,9.267,9.267,0,0,0-3.259-3.69c-1.284-1.037-2.723-1.883-4.086-2.824a3.423,3.423,0,0,1-.533-.516,10.965,10.965,0,0,0-1.444-1.558c-1.368-.992-1.886-2.427-2.512-3.906a11.6,11.6,0,0,0-2.765-4.231,21.363,21.363,0,0,1-3.626-4.73,18.924,18.924,0,0,1-2.543-5.4c-.262-1.065-.894-2.059-1.077-3.184-.058-.361-.2-.758.429-.793.775-.043,1.035.059,1.018.689a8.26,8.26,0,0,0,1.763,5.246,7.263,7.263,0,0,1,.872,1.658,4.689,4.689,0,0,0,1.716,2.114,6.38,6.38,0,0,1,1.59,1.736c.885,1.315,1.742,2.649,2.622,3.968a2.508,2.508,0,0,1,.46,1.15,11.837,11.837,0,0,0,.807,2.628,2.031,2.031,0,0,0,.923,1.153,28.624,28.624,0,0,1,3.286,2.448,50.291,50.291,0,0,1,4.494,3.546,8.11,8.11,0,0,1,1.4,1.752,6.645,6.645,0,0,0,1.618,1.87,47.78,47.78,0,0,0,3.75,3.052,16.053,16.053,0,0,0,3.894,2.184,5.974,5.974,0,0,1,2.846,1.71c.747.834,1.818,1.324,2.61,2.135.142.147.345.243.364.579C-397.669,16.573-398.232,15.684-398.849,15.265Zm2.994-.016a11.2,11.2,0,0,0-2.512-2.036,3.253,3.253,0,0,1-1.171-1.09.264.264,0,0,1-.229-.251c-.008,0-.014,0-.023,0s0-.016,0-.025c-.132-.019-.249-.054-.226-.225l-.02,0c0-.005-.005-.008-.008-.013-.726.234-1.228-.361-1.849-.521a11.717,11.717,0,0,1-4.757-2.855c-.678-.6-1.382-1.184-2.064-1.777a17.479,17.479,0,0,1-3.176-3.823A5.548,5.548,0,0,1-409.6,3.924a42.6,42.6,0,0,0,4.791,3.8c1.31.89,2.3,2.132,3.586,3.035.395.277.95.346,1.182.847.01,0,.018,0,.028-.006s0,.014,0,.024c.13.022.225.078.226.225l.022,0c0,.007,0,.013,0,.02a.286.286,0,0,1,.322.167,21.705,21.705,0,0,1,4.825,2.56c.919.618,1.948,1.072,3.188,1.74C-393.225,16.464-394.68,16.59-395.855,15.249Zm6.493.993c-1.055-.7-2.223-1.151-3.315-1.758-1.528-.851-3.054-1.7-4.587-2.544-.73-.4-1.506-.7-2.219-1.153a12.242,12.242,0,0,1-2.664-2.231,20.573,20.573,0,0,0-3.531-2.733c-1.347-.984-2.484-2.218-3.875-3.14-.312-.207-.633-.4-.959-.586A1.775,1.775,0,0,1-411.569.328l-.016-.011c0-.007-.007-.01-.009-.018-.184.028-.225-.08-.221-.232-.007,0-.011-.008-.018-.01L-411.9.023l.085.018c0,.009,0,.017,0,.026a.337.337,0,0,1,.221.232c.009,0,.014,0,.025,0s0,.019,0,.029c1.09.82,2.2,1.614,3.26,2.472a5.262,5.262,0,0,0,1.346.64c1.063.463,2.144.921,3.171,1.424,1.489.729,3.118,1.418,3.913,3.118a4.963,4.963,0,0,0,1.962,2.051,36.136,36.136,0,0,0,5.45,2.757,23.524,23.524,0,0,1,5.532,3.515A2.356,2.356,0,0,1-389.362,16.242Zm7.224-.414c-.663.108-1.387.219-2.109.344a1.924,1.924,0,0,1-1.412-.407,33.074,33.074,0,0,1-2.988-2.054,12.43,12.43,0,0,0-2.861-1.491,48.392,48.392,0,0,1-6.161-3.308A3.8,3.8,0,0,1-398.95,7.4a6.835,6.835,0,0,0-2.865-2.69c-1.723-1.025-3.694-1.511-5.415-2.484a17.783,17.783,0,0,1-4.507-3.545,6.05,6.05,0,0,1-1-2.151,4.121,4.121,0,0,0-1.243-2.127,1.836,1.836,0,0,1-.422-.755,14.368,14.368,0,0,0-4.263-5.117,9.58,9.58,0,0,1-2.879-3.542c-.815-1.741-1.184-3.636-2.08-5.333-.485-.918-.95-1.847-1.5-2.929a3.486,3.486,0,0,1,1.837.039c.473.253.415.959.542,1.457a14.168,14.168,0,0,0,1.572,3.949c1.166,1.889,2.06,3.974,4.03,5.345A22.242,22.242,0,0,1-413.817-9.1a4.631,4.631,0,0,1,.606,1.091,41.379,41.379,0,0,1,2.1,5.064A5.727,5.727,0,0,0-407.79.426a14.386,14.386,0,0,1,3.228,1.87,10.218,10.218,0,0,0,2.693,1.525,10.916,10.916,0,0,1,3.518,2.31,25.339,25.339,0,0,0,5.482,3.684,26.287,26.287,0,0,1,3.4,2.089,8.784,8.784,0,0,0,2.435,1.259,31.118,31.118,0,0,1,4.749,2.262C-382.177,15.485-382.069,15.555-382.138,15.828Zm.41-1.189c-2-1.31-4.337-1.956-6.423-3.1A33.167,33.167,0,0,1-391.432,9.5a12.951,12.951,0,0,0-2.138-1.286,20.8,20.8,0,0,1-4.911-3.425,8.6,8.6,0,0,0-2.278-1.477A15.99,15.99,0,0,1-404.3,1.263a13.475,13.475,0,0,0-3.031-1.706,4.57,4.57,0,0,1-2.731-2.764,18.856,18.856,0,0,0-1.08-2.929c-.9-1.619-1.4-3.459-2.931-4.738-1.307-1.091-2.314-2.525-3.742-3.506a1.487,1.487,0,0,1-.421-.461c-1.529-2.579-3.223-5.082-3.862-8.086a.66.66,0,0,1,.044-.238c1.234-.188,1.279-.208,1.71.784.73,1.683,1.438,3.376,2.078,5.094a10.293,10.293,0,0,0,4.443,5.375,6.545,6.545,0,0,1,2.814,3.857,15.51,15.51,0,0,0,2.147,4.366,2.466,2.466,0,0,1,.295.4,5.382,5.382,0,0,0,4.025,3.066,7.334,7.334,0,0,1,1.871.991c1.7,1.012,2.992,2.524,4.588,3.65,1.77,1.25,3.558,2.476,5.431,3.571a.619.619,0,0,0,.111.059c4.375,1.455,8.167,4.182,12.5,5.74a6.031,6.031,0,0,1,1.772.918A3.051,3.051,0,0,1-381.729,14.639Zm-28.786-24.5.076-.07.065.081-.041.073Zm34.294,23.83a.539.539,0,0,1-.675.158,4.419,4.419,0,0,1-.456-.2l-7.987-3.625a.61.61,0,0,1-.116-.05c-2.717-1.989-6.156-2.579-8.874-4.55a51.617,51.617,0,0,1-5.4-4.017,11.427,11.427,0,0,0-4.547-2.808,5.556,5.556,0,0,1-3.465-2.618,20.332,20.332,0,0,1-2.518-5.285.618.618,0,0,1,.023-.528,3.574,3.574,0,0,1,1.771,1.483c.691,1.492,1.954,2.486,2.966,3.687.421.5.817,1.035,1.255,1.528A15.729,15.729,0,0,0-400.4.1a29.887,29.887,0,0,1,3.645,2.63,5.023,5.023,0,0,0,2.126,1.032,6.392,6.392,0,0,1,2.707,1.506A7.671,7.671,0,0,0-388.9,6.954,4.85,4.85,0,0,1-386.67,8.3a12.681,12.681,0,0,0,3.954,2.313c2.04.95,4.089,1.883,6.128,2.835C-376.387,13.541-376.044,13.645-376.22,13.967Zm.8-1.063q-3.813-2.02-7.793-3.7a16.155,16.155,0,0,1-3.424-2.227,5.54,5.54,0,0,0-2.127-1.035,4.844,4.844,0,0,1-2.067-1.124,9.317,9.317,0,0,0-3.757-2.144A7.924,7.924,0,0,1-397.519.81c-1.33-1.094-2.832-1.918-4.229-2.9a8.074,8.074,0,0,1-1.818-1.681c-.831-1.1-1.835-2.025-2.718-3.067a2.824,2.824,0,0,1-.485-.571c-.69-1.541-2.2-2.369-3.155-3.658a33.3,33.3,0,0,0-3.141-3.565,8.1,8.1,0,0,1-1.567-2.395,53.581,53.581,0,0,1-2.532-6.189c.537-.092.855-.189,1.035.35a25.973,25.973,0,0,0,3.139,5.493c1.273,2.014,2.914,3.765,4.142,5.78a21.076,21.076,0,0,0,3.537,4.177c.21.2.377.488.675.541A3.148,3.148,0,0,1-402.59-5.16a11.977,11.977,0,0,0,3.065,2.694c.194.152.469.212.641.382,2.177,2.148,4.9,3.378,7.638,4.595a2.64,2.64,0,0,1,.954.576,2.188,2.188,0,0,0,1.562.7,3.235,3.235,0,0,1,1.913.813c.814.648,1.9.8,2.754,1.445,1.052.786,2.209,1.434,3.335,2.117a4.7,4.7,0,0,1,1.188,1.276,6.7,6.7,0,0,0,3.217,2.059c.882.324,1.766.641,2.744,1A1.361,1.361,0,0,1-375.424,12.9ZM-410.859-17.61a24.47,24.47,0,0,0,2.945-1.373c1.281-.764,2.645-1.372,3.9-2.214a24.183,24.183,0,0,1,2.744-1.465c3.177-1.58,6.347-3.17,9.419-4.944a25.564,25.564,0,0,1,3.645-2.184c1.682-.63,3.275-1.457,4.916-2.179A.664.664,0,0,1-382.6-32a2.443,2.443,0,0,1-1.4,1.26,28.062,28.062,0,0,0-3.416,1.831c-1.859,1.032-3.838,1.832-5.638,2.988a36.677,36.677,0,0,0-4.8,3.377,17.016,17.016,0,0,1-6.191,3.692c-1.827.579-3.614,1.283-5.423,1.921-.353.124-.726.189-1.087.294a.552.552,0,0,1-.714-.34C-411.453-17.381-411.118-17.5-410.859-17.61Zm2.209,4.221c-.051-.219.152-.271.312-.281,1.73-.1,3.189-1.062,4.806-1.519.3-.086.55-.4.988-.218a5.564,5.564,0,0,1-1.713.943c-1.236.608-2.621.777-3.895,1.281C-408.35-13.1-408.589-13.131-408.65-13.389Zm4.548,5.4c3.657-.765,6.872-2.517,10.368-3.4a13.588,13.588,0,0,0,3.162-1.156.693.693,0,0,1,.734-.1A7.783,7.783,0,0,1-393.42-11a27.671,27.671,0,0,0-4.7,2.044c-1.205.586-2.435,1.1-3.676,1.592C-403-6.882-403.007-6.89-404.1-7.986Zm39.97-17.577.02,0a.257.257,0,0,1,.232-.228.257.257,0,0,0,0-.027c.012,0,.019,0,.029,0a.256.256,0,0,1,.223-.225.26.26,0,0,0,0-.028c.009,0,.017,0,.025.007.044-.2.211-.288.365-.387a5.792,5.792,0,0,1,2.268-1.914,7.052,7.052,0,0,0,1.674-1.091,1.753,1.753,0,0,1,1.373-.516c-1.716,1.245-3.174,2.83-5.152,3.706-.136.181-.293.3-.529.2,0,0,0,.007,0,.012s-.011.007-.02.009c.022.171-.051.247-.223.225,0,.007-.007.01-.008.018s-.012.007-.02.008c.022.174-.041.264-.232.228,0,0,0,.006-.005.01s-.005,0-.008,0c.1.164-.007.267-.117.369a3.871,3.871,0,0,1-2.378,1.676,9,9,0,0,1,2.222-1.83.287.287,0,0,1,.273-.215C-364.129-25.553-364.128-25.558-364.132-25.563Zm1.091.793a2.4,2.4,0,0,1,.569-.485,53.815,53.815,0,0,0,4.906-3.475c1.9-1.285,3.644-2.794,5.671-3.9.623-.34,1.2-.763,1.831-1.087a4.23,4.23,0,0,0,1.546-1.245,5.732,5.732,0,0,1,3.135-2.078c-.007.323-.235.426-.406.544a13.914,13.914,0,0,0-2.239,1.993,28.18,28.18,0,0,1-2.2,1.839,65.708,65.708,0,0,1-8.108,5.428,14.72,14.72,0,0,0-4.684,4.435,12.161,12.161,0,0,1-4.577,3.992,11.677,11.677,0,0,0-4.033,2.906c-.12.156-.362.293-.148.512.194.2.381.012.548-.1.271-.18.471-.472.825-.52l.005-.009.008,0a.348.348,0,0,1,.5-.247v0h0c-.027-.193.091-.234.241-.241,0-.007,0-.011,0-.018s.016,0,.024,0a.381.381,0,0,1,.466-.234c0-.007.007-.01.01-.017a.056.056,0,0,1,.018-.009c-.014-.088.05-.18.085-.149.186.168-.012.121-.085.149a.126.126,0,0,0,0,.028c-.011,0-.02,0-.03,0a.383.383,0,0,1-.466.234c0,.006-.006.008-.008.014l-.017,0c.016.171-.087.229-.241.241v0h0c-.094.229-.246.34-.5.247l0,0-.011,0a5.179,5.179,0,0,1-1.972,2.129,33.022,33.022,0,0,1-4.693,2.629,26.8,26.8,0,0,0-4.556,2.61,17.231,17.231,0,0,1-5.536,2.589c-.219.057-.464.164-.7-.025.216-.368.617-.417.957-.534a6.583,6.583,0,0,0,2.161-1.243,8.438,8.438,0,0,1,2.434-1.521c1.8-.7,3.467-1.65,5.2-2.473a9.86,9.86,0,0,0,4.468-3.694,18.709,18.709,0,0,1,3.984-4.278C-366.776-21.445-364.779-22.968-363.041-24.77Zm5.582-5.493c.029-.008.068.019.1.028,0,.024.008.061,0,.066a.157.157,0,0,1-.1.026C-357.576-30.183-357.575-30.232-357.459-30.264Zm-7.6,15.977c-1.366.15-2.311-.621-3.451-1.339A12.244,12.244,0,0,1-366.5-17.15c.839-.394,1.3.649,2.041.819a3.286,3.286,0,0,1,1.7,1.24c-1.148.011-2.1-.732-3.291-.91C-365.952-15.248-365.182-14.956-365.056-14.287Zm-2.578.529-2.274-.685C-369.119-14.911-368.833-14.829-367.634-13.759Zm-24.1,10.646c1.541.179,3.088.108,4.631.185a15.432,15.432,0,0,1,4.078.548,4.81,4.81,0,0,0,1.366.153c2.132.068,4.259-.04,6.388-.1,1.5-.045,3-.039,4.5-.088a62.259,62.259,0,0,0,11.519-1.618,2.511,2.511,0,0,1,2.4.232c-5.045.955-10,2.254-15.132,2.519a64.005,64.005,0,0,1-9.622-.479c-2.9-.286-5.744-1.046-8.689-.965a18.72,18.72,0,0,1-3.212.166A2.387,2.387,0,0,1-391.734-3.112Zm-1.6-.987a.284.284,0,0,1,.1-.014.253.253,0,0,1,.081.042.3.3,0,0,1-.1.015A.282.282,0,0,1-393.335-4.1Zm.776-.224a5.939,5.939,0,0,1,3.027-1.129c.012-.009.024-.016.036-.025l.027,0a.205.205,0,0,1,.219-.158c.026,0,.051.07.078.108l-.3.05c0,.009-.01.011-.012.021l-.051.009A7.622,7.622,0,0,1-392.56-4.323Zm23.253,1.011c-1.653.182-3.338.093-5.008.115-1.461.018-2.919.062-4.379.148a15.941,15.941,0,0,1-4.846-.36,12.616,12.616,0,0,0-2.86-.3c-.988-.017-1.976-.049-3.042-.076.129-.471.431-.606.672-.549a28,28,0,0,0,6.073.394q4.76.064,9.522-.039A51.758,51.758,0,0,0-363.118-5.11a3.353,3.353,0,0,1,3.086.309C-363.191-4.17-366.238-3.65-369.306-3.312Zm-19.318-2.54a1.437,1.437,0,0,1,.219-.058c.026,0,.058.047.088.073a1.281,1.281,0,0,1-.218.057C-388.562-5.777-388.595-5.827-388.625-5.852Zm2.4,1.054c-.02-.5.365-.463.507-.415,1.444.489,2.872.011,4.293-.079,2.5-.159,4.988-.422,7.492-.487a34.188,34.188,0,0,0,8.816-.891c.818-.239,1.391.349,2.1.522C-370.7-4.262-378.471-4.813-386.223-4.8Zm13.424-4.97a2.7,2.7,0,0,1,2.1.2c.062.028.093.127.209.3a66.335,66.335,0,0,1-9.176.9,3.4,3.4,0,0,1,2.53-1.113A12.645,12.645,0,0,0-372.8-9.769Zm-3.641-.256c1.16-1.178,2.252-1.335,3.461-.321Zm6.55,1.375a1.413,1.413,0,0,1,1.321.333c-4.121.989-8.254.874-12.373.843a1.314,1.314,0,0,1,1.1-.231A42.075,42.075,0,0,0-369.89-8.649Zm2.206.775c.564-.161,1.116.135,1.882.579a27.325,27.325,0,0,1-7,.494C-371.116-7.249-369.367-7.4-367.685-7.875ZM-379.57-6.4a28.589,28.589,0,0,1-4.573.584C-382.6-6.983-381.021-6.214-379.57-6.4Zm6.424-5.27c.094-.5.362-.586.655-.6a4.015,4.015,0,0,1,2.062.391,14.387,14.387,0,0,1,3.232,1.854,9.663,9.663,0,0,0,1.462.946,2.134,2.134,0,0,1,.978.92A67.937,67.937,0,0,1-373.146-11.673Zm3.73-8.877a13.37,13.37,0,0,0-3.95,4.143A10.3,10.3,0,0,1-377.8-12.68c-1.91.945-3.822,1.88-5.758,2.769a3.338,3.338,0,0,0-.866.5c-2.015,1.825-4.527,2.625-7.025,3.467a33.141,33.141,0,0,1-4.121,1.461c-.669.132-1.055.785-1.634,1.129-1.167.692-1.648.63-2.581-.54.12-.28.393-.273.629-.337a27.829,27.829,0,0,0,6.045-2.015c3.124-1.676,6.525-2.757,9.559-4.634,1.157-.717,2.449-1.242,3.643-1.937a12.221,12.221,0,0,0,3.479-3.207,7.009,7.009,0,0,1,1.893-1.8,3.934,3.934,0,0,0,1.294-1.171A3.074,3.074,0,0,1-372-20.005a10.045,10.045,0,0,0,3.247-2.307,4.47,4.47,0,0,1,2.126-1.189A10.588,10.588,0,0,1-369.416-20.55ZM-387.374-.008a48.571,48.571,0,0,1-6.986-.222,1.374,1.374,0,0,1-1.066-.793C-392.619-.615-389.967-.6-387.374-.008ZM-396-1.841a1.067,1.067,0,0,1,.995.04C-395.356-1.762-395.676-1.626-396-1.841Zm1.706-1.91a1.821,1.821,0,0,1-.191.027c-.007.007-.013.015-.02.021h-.034a1.5,1.5,0,0,1-.967.391c.213-.512.617-.379.967-.391.006-.007.013-.009.019-.017l.035,0c.046-.049.09-.11.144-.12a1.193,1.193,0,0,1,.3.016C-394.125-3.8-394.209-3.771-394.3-3.751Zm23.908,14.377c-1.662.008-3.326-.011-4.986-.094a1.971,1.971,0,0,1-1.547-.636c2.869-.332,5.615.21,8.6-.287A2.855,2.855,0,0,1-370.389,10.626Zm2.7-1.831c-1.46-.041-2.875.4-4.349.3-1.789-.121-3.587-.082-5.382-.126-.4-.01-.843.107-1.2-.267.12-.237.238-.262.361-.254,2.249.137,4.5,0,6.746-.007a6.6,6.6,0,0,1,1,.1,8.994,8.994,0,0,0,3.6-.164A.859.859,0,0,1-367.69,8.8Zm-1.462-1.16c-3.214-.194-6.429.048-9.644-.05a1.61,1.61,0,0,1-1.573-.692c4.526-.166,8.945.369,13.5.237A4.009,4.009,0,0,1-369.152,7.635Zm3.58-1.386q-7.823-.185-15.651-.228c-1-.007-1.539-.694-2.28-1.094a12.014,12.014,0,0,1,2.9.105,23.511,23.511,0,0,0,2.619.226c1.79.105,3.579.132,5.367.347a31.406,31.406,0,0,0,8.111-.187,7.428,7.428,0,0,1,1.845.007A7.026,7.026,0,0,1-365.572,6.248Zm4-1.992c-3.2.22-6.4.844-9.618.485-4.03-.447-8.087-.379-12.12-.731a21.69,21.69,0,0,0-2.367-.214c-.6.012-.939-.429-1.509-.9a15.178,15.178,0,0,1,1.622.008c4.271.516,8.566.693,12.857.919q1.5.077,3,.206c2.849.248,5.659-.291,8.491-.389.54-.019,1.025-.374,1.719-.238C-360.032,4.275-360.9,4.209-361.573,4.256Zm2.346-1.676a23.089,23.089,0,0,1-5.087.5c-1.087,0-2.146.336-3.245.234-4.7-.436-9.421-.549-14.121-.992a60.1,60.1,0,0,0-7.629-.4A3.3,3.3,0,0,1-391.5.9,9.635,9.635,0,0,1-390.311.9c2.035.253,4.094.189,6.123.44a17.812,17.812,0,0,1,3.334.488,2.272,2.272,0,0,0,.617.106c3.091.1,6.158.584,9.253.629a46.939,46.939,0,0,0,5.476-.613C-362.562,1.653-359.7.778-356.5.6A5.032,5.032,0,0,1-359.227,2.58ZM-386.8.149a.325.325,0,0,1,.114-.009c.136.042.131.076-.012.091Zm30.6-.671a43.191,43.191,0,0,1-4.556.8c-2.325.5-4.685.783-7.035,1.133a28.2,28.2,0,0,1-6.622.044c-1.7-.147-3.4-.379-5.107-.407a4.06,4.06,0,0,1-1.851-.425c1.15,0,2.093-.037,3.033.006C-374.7.8-371.076.55-367.447.465c2.077-.049,4.167-.215,6.233-.45a43.527,43.527,0,0,0,4.872-1.1c.483-.113.967-.221,1.688-.385A2.759,2.759,0,0,1-356.2-.522Zm1.947-1.951c-2.189.523-4.371,1.082-6.574,1.543a28.3,28.3,0,0,1-3.595.459c-2.412.186-4.832.226-7.252.291a69.13,69.13,0,0,1-8.128.019,64.139,64.139,0,0,1-7.211-.772,33.288,33.288,0,0,0-5.227-.525,2.325,2.325,0,0,1-1.605-.425c1.935.2,3.681-.13,5.431.119.907.13,1.818.237,2.726.37A63.014,63.014,0,0,0-368.1-.838c3.566-.478,7.066-1.242,10.587-1.928a25.929,25.929,0,0,0,3.062-.638c.335-.107.97-.249,1.075.252S-353.855-2.568-354.254-2.473Zm.731-1.91a14.027,14.027,0,0,1-4.138-.928,13.12,13.12,0,0,0-2.632-.79,2.128,2.128,0,0,1-1.276-.613l-.039,0-.02-.023-.319-.043c.155-.24.229-.058.319.043l.034,0c.008.009.017.014.025.023,1.722.229,3.451.41,5.16.708a18.046,18.046,0,0,0,3.6.327c.236-.005.5-.076.7.131C-352.384-4.326-352.431-4.29-353.523-4.383Zm1.7-2.148c-1.282-.167-2.581-.069-3.862-.363a33.321,33.321,0,0,0-3.835-.586,11.053,11.053,0,0,1-4.946-1.951c-2.111-1.4-4.083-3.066-6.62-3.778a2.123,2.123,0,0,1,1.733-.153c.12.029.226.119.346.146a11.333,11.333,0,0,1,4.636,2.5,15.022,15.022,0,0,0,9.3,3.2c1.37.025,2.74.092,4.206.144C-350.981-6.7-351.31-6.462-351.827-6.531Zm1.332-1.746c-1.124-.062-2.248-.17-3.373-.185a17.785,17.785,0,0,1-6.368-1.075,17.057,17.057,0,0,1-5.092-3.246l.161-.262a14.137,14.137,0,0,1,2.284,1.175,6.208,6.208,0,0,0,2.379,1.045c2.387.578,4.787,1.1,7.174,1.674a17.844,17.844,0,0,0,2.865.215c.227.018.58-.056.552.307C-349.934-8.353-350.224-8.263-350.5-8.277Zm.774-1.674a20.326,20.326,0,0,1-5.434-.695c-.884-.235-1.785-.415-2.687-.572a19.169,19.169,0,0,1-6.313-2.5c-.1-.055-.145-.187-.216-.284l-.439-.09c.035-.05.066-.136.106-.141a.273.273,0,0,1,.335.229,10.5,10.5,0,0,1,3.95,1.058A39.012,39.012,0,0,0-349.869-10.5a4.338,4.338,0,0,1,.611.1c.054.014.086.116.131.183C-349.212-9.879-349.494-9.952-349.721-9.951Zm1.753-3.412c-.288,1.136-.338,1.178-1.535,1.092A29.886,29.886,0,0,1-354.99-13.5a12.113,12.113,0,0,0-1.572-.411,12.668,12.668,0,0,1-5.932-2.5,6.759,6.759,0,0,0-1.851-1.035c-.275-.09-.566-.175-.69-.5.476-.58,1.042-.409,1.584-.149s1.024.563,1.536.848a10.636,10.636,0,0,0,4.06,1.19,31.532,31.532,0,0,1,4.288.894,30.386,30.386,0,0,0,5.039.934C-347.8-14.175-347.779-14.1-347.969-13.362Zm-.549-1.867A32.081,32.081,0,0,1-354.4-16.37q-2.2-.51-4.422-.855A12.064,12.064,0,0,1-362.83-18.9c-.4-.224-.364-.488.032-.733a1.157,1.157,0,0,1,1.3.044,20.159,20.159,0,0,0,7.965,2.375,46.564,46.564,0,0,0,6.264.754C-347.481-15.137-347.479-15.186-348.518-15.229Zm1.98-3.017c-.091.441-.114.965-.8.885-.7-.081-1.415-.128-2.114-.243-2.221-.364-4.441-.738-6.657-1.136a16.682,16.682,0,0,1-4.992-1.827c.6-.726,1.107-.858,1.838-.429a8.984,8.984,0,0,0,3.356.963c2.892.4,5.756,1.007,8.675,1.214C-346.853-18.794-346.413-18.849-346.538-18.247Zm-.514-1.572c-1.12-.135-2.246-.234-3.361-.405q-3.341-.512-6.671-1.1a4.861,4.861,0,0,1-1.939-.669,1.194,1.194,0,0,1,1.7-.352,13.016,13.016,0,0,0,4.477,1.108c1.921.114,3.846.156,5.769.237.351.016.8-.1.81.5C-346.256-19.932-346.539-19.757-347.051-19.818Zm.3-2.028a48.2,48.2,0,0,0-5.238-.285,24.632,24.632,0,0,1-4.4-.878c-.272-.064-.578-.107-.7-.5.488-.542.968-.935,1.77-.411a4.634,4.634,0,0,0,1.8.452,29.773,29.773,0,0,0,6.817.684c.281-.017.761-.183.789.307C-345.881-21.955-346.254-21.766-346.754-21.846Zm.2-1.846c-.414-.045-.83-.069-1.245-.1a47.007,47.007,0,0,1-6.432-.81.647.647,0,0,1-.241-.064c-.262-.144-.732-.094-.642-.591a.893.893,0,0,1,1.053-.621c2.372,1.155,4.921,1.109,7.459,1.152.041,0,.084,0,.125,0,.386.042.921-.1.863.569C-345.668-23.525-346.135-23.644-346.555-23.692Zm.583-1.925c-2.24-.251-4.319-.048-6.306-.671-.323-.1-.88-.027-.761-.567s.55-.463,1-.275a15.972,15.972,0,0,0,4.2.63c.579.078,1.164.113,1.746.166.249.022.518.007.553.355C-345.515-25.707-345.7-25.606-345.972-25.617Zm-5.839-2.348c.193-.557.5-.825.886-.735,1.776.422,3.569.751,5.365,1.134A21.149,21.149,0,0,1-351.811-27.965Zm6.121-.874c-.787-.067-1.576-.129-2.358-.238-.652-.091-1.295-.244-2.031-.387.216-.538.524-.688.936-.594a16.807,16.807,0,0,0,3.481.262c.278,0,.623-.076.614.385A.524.524,0,0,1-345.69-28.839Zm-.334-2.007c-.565.021-1.132,0-1.943,0,.888-1.2.9-1.23,2.125-.852.343.106,1.041-.121.975.441C-344.927-30.734-345.591-30.863-346.024-30.847Zm1.3-1.867c-.319.3-.754.119-1.377-.089l1.363-1.011C-344.505-33.41-344.436-32.99-344.728-32.714Zm-.124-2.125c-1.278,1-2.489,2.12-3.82,3.005-1.167.777-2.266,1.632-3.4,2.443a5.942,5.942,0,0,0-1.732,1.606.353.353,0,0,1-.078.1c-2.969,2.261-5.638,4.929-9.01,6.643a1.465,1.465,0,0,1-.308,0c.626-.906,1.15-1.758,1.769-2.535a8.9,8.9,0,0,1,2.5-2.253c1.775-1.013,3.425-2.229,5.246-3.172,1.717-.889,3.046-2.325,4.615-3.421,1.411-.985,2.4-2.439,3.863-3.346.174-.107.317-.276.615-.248A.942.942,0,0,1-344.852-34.839Zm-.1-2.387.042-.056.029.064Zm-1.562-.653c0,.009-.01.017-.015.026l-.012.006c.032.07,0,.154-.043.132-.173-.1-.022-.1.043-.132a.133.133,0,0,0-.011-.025l.038-.007a8.606,8.606,0,0,1,1.72-2.205C-344.443-38.784-345.031-38.074-346.519-37.879Zm1.286-3.183a23.01,23.01,0,0,0-2.118,2.477,14.961,14.961,0,0,1-5.852,4.6,20.424,20.424,0,0,0-2.849,1.576c-.854.536-1.8.9-2.65,1.4a21.946,21.946,0,0,0-4.872,3.248,21.109,21.109,0,0,1-5.009,3.942,2.979,2.979,0,0,0-.892.68,8.863,8.863,0,0,1-3.044,2.161,3.756,3.756,0,0,0-1.543,1.243,1.455,1.455,0,0,1-.422.46A14.816,14.816,0,0,0-378.2-15.6a11.192,11.192,0,0,1-4.266,3.018c-1.561.713-2.974,1.679-4.538,2.378-.915.41-1.837.81-2.764,1.18-1.592.633-3,1.638-4.605,2.222a55.093,55.093,0,0,1-5.87,1.781.688.688,0,0,1-.69-.171c-.3-.288-.618-.554-1.068-.951a59.134,59.134,0,0,0,7.17-3.263,9.9,9.9,0,0,1,1.2-.364,17.9,17.9,0,0,0,4.047-1.652,3.253,3.253,0,0,1,1.039-.428,36.651,36.651,0,0,0,6.771-2.919,2.78,2.78,0,0,0,1.261-1.191,11.018,11.018,0,0,1,1.214-1.4c1-1.323,2.55-2.018,3.569-3.3a1.033,1.033,0,0,1,.5-.358,14.925,14.925,0,0,0,2.959-1.617,4.861,4.861,0,0,0,1.7-1.643,2.371,2.371,0,0,1,1.005-.909,29.015,29.015,0,0,0,2.636-1.689,1.074,1.074,0,0,0,.452-.424c.462-1.026,1.408-1.3,2.346-1.694a39.531,39.531,0,0,0,5.052-2.5c1.681-1.012,3.376-2,5.071-2.99a6.869,6.869,0,0,0,1.3-.981,3.763,3.763,0,0,1,.868-.713,13.76,13.76,0,0,0,4.765-4.348,17.371,17.371,0,0,1,2.036-2.214C-344.61-41.742-344.6-41.652-345.234-41.062Zm-44.313,28.273c2.907-1.961,5.463-4.035,8.243-5.8a12.453,12.453,0,0,0,2.354-1.864,34.923,34.923,0,0,1,3.1-2.529,36.064,36.064,0,0,1,4.933-3.838,22.462,22.462,0,0,1,3.669-1.868c.094-.081.194-.179.289-.017.014.024-.087.114-.135.174-.48,1.075-1.571,1.455-2.453,2.015a8.261,8.261,0,0,0-2.242,1.93,8.8,8.8,0,0,1-3.481,2.358,2.863,2.863,0,0,0-1.574,1.154.859.859,0,0,1-.338.364c-1.343.673-2.122,1.982-3.268,2.875-.132.1-.319.188-.376.325-.615,1.5-1.99,2.086-3.3,2.689A18.723,18.723,0,0,1-389.547-12.788Zm44.057-30.8a15.418,15.418,0,0,0-2.936,3.062c-1.118,1.277-2.185,2.656-3.857,3.308a.867.867,0,0,0-.321.193,18.5,18.5,0,0,1-4.108,2.833,58.973,58.973,0,0,1-7.843,4.18,1.483,1.483,0,0,1-1.053.18l-.01.012-.022.01c.011.071-.012.111-.085.105,0-.024,0-.059.008-.069a.285.285,0,0,1,.077-.036c0-.011,0-.015,0-.028.01,0,.02,0,.031.006a3.478,3.478,0,0,1,2.041-1.528,14.886,14.886,0,0,0,4.315-1.979c1.549-1.031,3.063-2.114,4.62-3.139a13.1,13.1,0,0,0,2.928-2.719c.647-.8,1.574-1.36,2.291-2.128,1.308-1.4,2.646-2.774,3.98-4.167.294.28.215.639.315.939A.776.776,0,0,1-345.49-43.586Zm-.963-6.9a16.507,16.507,0,0,1-2.006,2.72,1.347,1.347,0,0,0-.25.28c-1.32,2.286-3.332,3.932-5.25,5.662a22.494,22.494,0,0,1-2.222,1.833c-2.026,1.4-3.926,2.968-6.058,4.233a25.208,25.208,0,0,1-3.681,2.082,4.135,4.135,0,0,0-.9.668,8.922,8.922,0,0,1-1.2.905,54.215,54.215,0,0,0-6.027,3.816,7.592,7.592,0,0,1-1.323.712,6.074,6.074,0,0,0-2.3,1.695,3.177,3.177,0,0,1-1.169.93,28.392,28.392,0,0,0-4.1,2.413,2.639,2.639,0,0,0-.783.616c-1.142,1.726-3.04,2.441-4.665,3.508-1.57,1.031-3.221,1.952-4.863,2.857a33.314,33.314,0,0,1-4.974,2.054c-1.968.7-3.98,1.271-5.968,1.911a9.425,9.425,0,0,1-1.362.189c-.3.051-.569.189-.518.575.041.307.289.4.541.429a3.763,3.763,0,0,0,1.6-.2,101.669,101.669,0,0,0,10.3-3.562,26.161,26.161,0,0,0,2.371-1.4c2.2-1.208,4.346-2.507,6.465-3.853a5.055,5.055,0,0,0,1.464-1.341,10.34,10.34,0,0,1,2.9-2.154,12.929,12.929,0,0,1,1.773-.936,4.821,4.821,0,0,0,1.7-1.255,5.725,5.725,0,0,1,2.1-1.545c1.786-.835,3.26-2.175,4.969-3.147a15.878,15.878,0,0,0,1.7-1.051c1.9-1.426,4.123-2.327,6.007-3.769a1.533,1.533,0,0,1,.2-.148,41.856,41.856,0,0,0,7.554-5.353c2.112-1.8,4.385-3.473,5.875-5.938.742-1.229,1.9-2.173,2.71-3.608a11.46,11.46,0,0,1,.5,2.662c.06.24-.182.34-.329.484-1.605,1.586-3.186,3.2-4.811,4.762-1.531,1.475-3.107,2.9-4.662,4.352a2.981,2.981,0,0,1-1.148.748,5.986,5.986,0,0,0-2.383,1.553,11.724,11.724,0,0,1-4.255,2.326,8.28,8.28,0,0,0-3.518,2.08,4.671,4.671,0,0,1-1.657,1.116,31.071,31.071,0,0,0-4.573,2.6c-1.576.974-2.8,2.38-4.281,3.47-2.117,1.555-4,3.388-6.215,4.854a48.946,48.946,0,0,0-5.471,3.953,4.679,4.679,0,0,1-1.175.714,47.433,47.433,0,0,1-6.25,2.214c-2,.6-3.937,1.373-5.873,2.148-.935.375-1.987.266-2.911.7-.147.07-.318-.037-.457-.143a8.4,8.4,0,0,1-2.122-2.443c-.385-.657-.3-.828.451-1.059a25.39,25.39,0,0,0,4.463-1.64c1.145-.6,2.3-1.183,3.433-1.809a56.735,56.735,0,0,1,5.735-2.811c1.571-.653,2.825-1.778,4.319-2.532.894-.451,1.747-.987,2.671-1.384a10.279,10.279,0,0,0,2.335-1.448,25,25,0,0,1,4.449-2.554,11.014,11.014,0,0,0,2.12-1.321c1.861-1.547,3.926-2.839,5.663-4.541a2.492,2.492,0,0,1,.647-.373c.11-.055.248-.058.355-.119,1.668-.945,3.615-1.443,5.113-2.577,1.864-1.411,3.952-2.471,5.725-4.032a26.325,26.325,0,0,1,4.657-3.375,8.091,8.091,0,0,0,3.192-3.118,2.72,2.72,0,0,1,.8-.952,8.821,8.821,0,0,0,1.844-1.866,17.649,17.649,0,0,1,2.988-2.906A1.206,1.206,0,0,1-346.453-50.485Zm-55.8,34.846c.027-.018.056-.054.082-.051s.049.04.074.063c-.027.018-.056.053-.082.051S-402.226-15.616-402.25-15.639Zm13.843-7.483a27.464,27.464,0,0,1,11.314-6.6,10.978,10.978,0,0,1-2.27,1.694c-1.356.572-2.565,1.408-3.878,2.054a5.67,5.67,0,0,0-1.451.982,11.39,11.39,0,0,1-3.487,1.934C-388.234-23.03-388.328-23.1-388.407-23.122Zm40.6-32.251c1.416,2.774,1.344,2.066-.628,3.852a14.538,14.538,0,0,0-1.646,1.719,9.433,9.433,0,0,1-1.845,1.868,3.7,3.7,0,0,0-1.069,1.215,7.337,7.337,0,0,1-2.844,2.759,42.741,42.741,0,0,0-5.361,3.9,13.373,13.373,0,0,1-2.675,1.844,6.218,6.218,0,0,0-1.63,1.142,3.735,3.735,0,0,1-2.355,1.2c-.009.006-.016.014-.025.021l-.048.032-.048.076c.005-.018,0-.043.016-.055a.279.279,0,0,1,.032-.021l.03-.049.042,0a17.754,17.754,0,0,0,3.6-3.927,5.106,5.106,0,0,1,.816-.947c1.815-1.54,3.647-3.059,5.476-4.583A9.991,9.991,0,0,0-356.9-46.2a55.516,55.516,0,0,0,4.953-5.481,8.875,8.875,0,0,1,2.172-2.232,17.816,17.816,0,0,0,1.722-1.58C-347.937-55.439-347.834-55.425-347.807-55.373Zm-1.022-.729a5.237,5.237,0,0,1-1.882,1.758,6.227,6.227,0,0,0-1.94,1.932,41.363,41.363,0,0,1-6.674,6.757c-1.63,1.306-3.161,2.736-4.792,4.046a14.967,14.967,0,0,0-2.042,2.533,9.662,9.662,0,0,1-2.351,2.237c-1.52.953-3,1.978-4.461,3.008-1.5,1.059-3.132,1.883-4.648,2.907a23.76,23.76,0,0,1-4.217,1.9,20.747,20.747,0,0,0-5.151,3.265,34.7,34.7,0,0,1-4.552,3.3c-1.687.981-3.395,1.949-5,3.088a18.244,18.244,0,0,1-3.956,1.863,20.309,20.309,0,0,0-2.448.961c-1.4.776-3.026.934-4.433,1.706a4.353,4.353,0,0,1-1.836.287c-.537.026-.631-.614-1.012-.978,2.351-.84,4.7-1.691,7.054-2.519a19.61,19.61,0,0,0,6.6-4.219,25.4,25.4,0,0,1,3.394-2.349c2-1.3,4.207-2.223,6.288-3.376a40.068,40.068,0,0,1,3.652-1.928c.741-.316,1.166-1.077,1.915-1.4,1.5-.645,2.971-1.343,4.48-1.96a14.593,14.593,0,0,0,5.781-3.63c.881-1,2.08-1.669,3.025-2.632,1.058-1.077,1.969-2.273,2.966-3.391,1.3-1.456,2.334-3.178,4.02-4.281a4.256,4.256,0,0,0,.783-.805,6.334,6.334,0,0,1,.63-.779c1.653-1.355,3-3.035,4.639-4.4.838-.694,1.691-1.364,2.47-2.128a2.894,2.894,0,0,1,1.441-.945,2.461,2.461,0,0,0,1.187-.893c.333-.359.667-.717,1.02-1.1C-348.135-57.029-348.124-57.02-348.829-56.1Zm-1.772-5.1a4.726,4.726,0,0,1,1.187,1.674.591.591,0,0,1-.064.7,3.537,3.537,0,0,1-1.3,1.311,10.11,10.11,0,0,0-1.965,1.317,83.248,83.248,0,0,0-7.233,6.385c-1.49,1.5-3.109,2.877-4.483,4.528a38.509,38.509,0,0,1-4.431,5.105c-.573.485-1.093,1.031-1.7,1.482a7.3,7.3,0,0,0-1.342,1.128c-1.39,1.694-3.319,2.48-5.258,3.28-1.545.639-3.065,1.34-4.6,2.011-.22.1-.424.295-.742.089a3.221,3.221,0,0,1,1.575-1.123,7.931,7.931,0,0,0,2.919-2.106,17.644,17.644,0,0,1,2.93-2.353,5.681,5.681,0,0,0,1.165-.941,67.535,67.535,0,0,1,6.121-6.107c1.785-1.767,3.341-3.73,5.136-5.474a8.508,8.508,0,0,1,1.8-1.551c1.926-1.029,3.244-2.72,4.766-4.2C-354.336-57.8-352.8-59.819-350.6-61.206Zm-2.38-3.023a.361.361,0,0,1,.693.166,2.816,2.816,0,0,0,.744,2.034c.177.189-.018.412-.184.52-1.673,1.075-2.761,2.77-4.288,4.012a33.489,33.489,0,0,0-3.075,3.121,5.745,5.745,0,0,1-1.574,1.219,8.508,8.508,0,0,0-2.58,1.972,27.4,27.4,0,0,0-3.24,3.656,1.734,1.734,0,0,1-.428.456,78.956,78.956,0,0,0-6.25,5.978,55.6,55.6,0,0,1-4.815,4.165.916.916,0,0,0-.1.079c-2.65,2.836-6.195,4.15-9.62,5.676a17.917,17.917,0,0,0-3.527,1.893,22.528,22.528,0,0,1-4.115,2.395c-2.28,1.045-4.429,2.343-6.68,3.446a14.779,14.779,0,0,0-3.36,1.892,12.319,12.319,0,0,1-2.281,1.281c-1.247.667-2.533,1.266-3.832,1.838-.633.28-.923.126-1.178-.417a2.218,2.218,0,0,1-.412-1.121,12.079,12.079,0,0,1,2.245-.538,7.128,7.128,0,0,0,1.552-.468c2.262-1.348,4.822-2.181,6.922-3.772,1.908-1.443,4.047-2.49,5.992-3.852a9.483,9.483,0,0,1,2.334-1.205,14.822,14.822,0,0,0,2.93-1.417,64.436,64.436,0,0,1,6.933-3.214,9.038,9.038,0,0,0,2.709-1.777,4.743,4.743,0,0,1,1.394-1.056,17.338,17.338,0,0,0,6.453-5.442,7.3,7.3,0,0,1,1.859-1.665,27.655,27.655,0,0,0,3.592-2.724,33.024,33.024,0,0,0,3.53-4.045c.992-1.188,1.76-2.609,3.281-3.355a7.9,7.9,0,0,0,2.694-2.928c1.049-1.516,2.26-2.9,3.358-4.374C-354.627-62.709-353.517-63.178-352.981-64.229Z" transform="matrix(-0.259, 0.966, -0.966, -0.259, 524.789, 1186.312)" fill="#153b5e"/>
  </g>
</svg>
