<svg width="19" height="19" viewBox="0 0 19 19" fill="none" xmlns="http://www.w3.org/2000/svg">
<path d="M9.5 0C4.25327 0 0 4.25327 0 9.5C0 14.7467 4.25327 19 9.5 19C14.7467 19 19 14.7467 19 9.5C19 4.25327 14.7467 0 9.5 0ZM9.5 17.1C5.30935 17.1 1.9 13.6906 1.9 9.5C1.9 5.30935 5.30935 1.9 9.5 1.9C13.6906 1.9 17.1 5.30935 17.1 9.5C17.1 13.6906 13.6906 17.1 9.5 17.1ZM12.705 6.29498C12.3339 5.92388 11.7327 5.92388 11.3616 6.29498L9.5 8.15662L7.63836 6.29498C7.26726 5.92388 6.66607 5.92388 6.29498 6.29498C5.92388 6.66607 5.92388 7.26726 6.29498 7.63836L8.15662 9.49992L6.29498 11.3616C5.92388 11.7327 5.92388 12.3338 6.29498 12.7049C6.66599 13.076 7.26702 13.0763 7.63836 12.7049L9.5 10.8433L11.3616 12.7049C11.7327 13.076 12.3337 13.0763 12.705 12.7049C13.0761 12.3338 13.0761 11.7327 12.705 11.3616L10.8434 9.49992L12.705 7.63836C13.0761 7.26726 13.0761 6.66607 12.705 6.29498Z" fill="#EB5757"/>
</svg>
