<svg width="43" height="39" viewBox="0 0 43 39" fill="none" xmlns="http://www.w3.org/2000/svg">
<path d="M42.6002 19.0901C42.6002 18.5923 42.3878 18.098 41.9748 17.75L22.4843 1.35864C22.1533 1.08197 21.7454 0.943604 21.3377 0.943604C20.9299 0.943604 20.5221 1.08197 20.1911 1.35864L0.700593 17.75C0.287599 18.098 0.0751953 18.5923 0.0751953 19.0901C0.0751953 20.2673 1.09594 20.8462 1.84855 20.8462C2.25305 20.8462 2.65984 20.7096 2.99384 20.4301L4.80034 18.9107V35.4814C4.80034 37.0959 6.1246 38.4085 7.75339 38.4085H14.8409C16.4697 38.4085 17.7939 37.0959 17.7939 35.4814V26.7003H24.8814V35.4814C24.8814 37.0959 26.2057 38.4085 27.8345 38.4085H34.922C36.5508 38.4085 37.875 37.0959 37.875 35.4814V18.9107L39.6815 20.4301C40.015 20.7091 40.4221 20.8463 40.8271 20.8463C41.5772 20.8463 42.6002 20.2587 42.6002 19.0901ZM34.3314 34.896H28.4251V26.1149C28.4251 24.5005 27.1009 23.1879 25.4721 23.1879H17.2033C15.5745 23.1879 14.2503 24.5005 14.2503 26.1149V34.896H8.34402V16.163C8.34402 16.0926 8.31176 16.0325 8.30349 15.9642L21.3377 5.00144L34.3314 15.9302V34.896Z" fill="white"/>
</svg>
