<svg width="13" height="14" viewBox="0 0 13 14" fill="none" xmlns="http://www.w3.org/2000/svg">
<path d="M12.7488 12.3594C13.1318 12.7842 13.0699 13.415 12.6102 13.7686C12.4076 13.9238 12.1616 14 11.9173 14C11.6068 14 11.2989 13.8779 11.0847 13.6406L6.49999 8.56231L1.91533 13.6406C1.70109 13.8779 1.39322 14 1.08271 14C0.838342 14 0.592354 13.9238 0.389768 13.7686C-0.069911 13.415 -0.131831 12.7842 0.251167 12.3594L5.08954 7.00008L0.251167 1.64076C-0.131831 1.21595 -0.069911 0.585117 0.389768 0.23159C0.848905 -0.120938 1.53182 -0.0652819 1.91533 0.359526L6.49999 5.43784L11.0847 0.359526C11.4671 -0.064282 12.1505 -0.120938 12.6102 0.23159C13.0699 0.585117 13.1318 1.21595 12.7488 1.64076L7.91045 7.00008L12.7488 12.3594Z" fill="black"/>
</svg>
